<svg width="288" height="288" viewBox="0 0 288 288" fill="none" xmlns="http://www.w3.org/2000/svg">
<g clip-path="url(#clip0)">
<path d="M33.6 76.8H4.8C2.1504 76.8 0 74.6496 0 72V4.8C0 2.1504 2.1504 0 4.8 0H72C74.6496 0 76.8 2.1504 76.8 4.8V33.6C76.8 36.2496 74.6496 38.4 72 38.4H38.4V72C38.4 74.6496 36.2496 76.8 33.6 76.8ZM9.6 67.2H28.8V33.6C28.8 30.9504 30.9504 28.8 33.6 28.8H67.2V9.6H9.6V67.2Z" fill="black"/>
<path d="M72 288H4.8C2.1504 288 0 285.85 0 283.2V216C0 213.35 2.1504 211.2 4.8 211.2H33.6C36.2496 211.2 38.4 213.35 38.4 216V249.6H72C74.6496 249.6 76.8 251.75 76.8 254.4V283.2C76.8 285.85 74.6496 288 72 288ZM9.6 278.4H67.2V259.2H33.6C30.9504 259.2 28.8 257.05 28.8 254.4V220.8H9.6V278.4Z" fill="black"/>
<path d="M283.2 76.8H254.4C251.751 76.8 249.6 74.6496 249.6 72V38.4H216C213.351 38.4 211.2 36.2496 211.2 33.6V4.8C211.2 2.1504 213.351 0 216 0H283.2C285.85 0 288 2.1504 288 4.8V72C288 74.6496 285.85 76.8 283.2 76.8ZM259.2 67.2H278.4V9.6H220.8V28.8H254.4C257.05 28.8 259.2 30.9504 259.2 33.6V67.2Z" fill="black"/>
<path d="M283.2 288H216C213.351 288 211.2 285.85 211.2 283.2V254.4C211.2 251.75 213.351 249.6 216 249.6H249.6V216C249.6 213.35 251.751 211.2 254.4 211.2H283.2C285.85 211.2 288 213.35 288 216V283.2C288 285.85 285.85 288 283.2 288ZM220.8 278.4H278.4V220.8H259.2V254.4C259.2 257.05 257.05 259.2 254.4 259.2H220.8V278.4Z" fill="black"/>
<path d="M220.8 225.6H67.1999C64.5503 225.6 62.3999 223.45 62.3999 220.8V67.2C62.3999 64.5504 64.5503 62.4 67.1999 62.4H220.8C223.45 62.4 225.6 64.5504 225.6 67.2V220.8C225.6 223.45 223.45 225.6 220.8 225.6ZM71.9999 216H216V72H71.9999V216Z" fill="black"/>
<path d="M283.2 148.8H4.8C2.1504 148.8 0 146.65 0 144C0 141.35 2.1504 139.2 4.8 139.2H283.2C285.85 139.2 288 141.35 288 144C288 146.65 285.85 148.8 283.2 148.8Z" fill="black"/>
</g>
<defs>
<clipPath id="clip0">
<rect width="288" height="288" fill="white"/>
</clipPath>
</defs>
</svg>
