<svg width="414" height="374" viewBox="0 0 414 374" fill="none" xmlns="http://www.w3.org/2000/svg">
<g opacity="0.26" clip-path="url(#clip0)">
<path opacity="0.1" d="M416.502 203.015C400.928 226.816 406.068 260.79 415.07 287.856C418.085 296.916 421.511 306.5 419.947 316.358C418.038 328.409 409.063 337.438 399.735 342.356C382.729 351.319 362.639 349.888 347.427 338.594C334.3 328.847 325.059 312.649 311.677 303.367C289.28 287.838 260.204 294.776 235.278 306.632C217.643 315.02 198.326 325.821 181.141 318.077C169.047 312.627 160.904 298.755 156.62 283.926C154.551 276.766 153.103 268.995 148.982 263.39C146.532 260.059 143.293 257.737 139.964 255.796C109.575 238.074 70.4871 249.151 41.0257 229.377C21.1354 216.023 8.75569 190.109 3.61206 162.866C-1.53156 135.622 -0.258583 106.864 1.79011 78.5968C3.24608 58.5087 5.54938 37.0428 16.3936 21.2567C27.8623 4.56687 47.0842 -2.06565 64.2734 0.548373C81.4626 3.16239 96.8736 13.7957 110.355 26.4892C127.218 42.324 142.733 62.2038 163.705 68.2161C177.99 72.3099 193.166 69.4123 208.016 68.1319C232.839 65.9964 257.575 68.4553 282.159 71.2333C305.694 73.8916 329.391 76.8601 351.68 85.5749C367.453 91.7423 379.956 103.399 394.806 111.365C404.485 116.558 415.134 117.763 424.244 124.471C435.486 132.734 445.645 147.372 442.348 164.939C439.233 181.638 424.777 190.384 416.502 203.015Z" fill="#6C63FF"/>
<g opacity="0.5">
<path opacity="0.5" d="M340.119 311.574C340.119 311.574 341.432 268.261 362.472 243.786C371.303 233.516 377.103 220.473 378.639 206.357C379.356 199.658 379.522 192.9 379.132 186.167" stroke="#535461" stroke-width="2" stroke-miterlimit="10"/>
<path opacity="0.5" d="M392.313 170.665C390.873 175.503 378.835 186.615 378.835 186.615C378.835 186.615 375.148 169.685 376.588 164.852C376.93 163.702 377.472 162.638 378.184 161.722C378.895 160.805 379.762 160.054 380.734 159.51C381.707 158.967 382.765 158.642 383.85 158.554C384.935 158.466 386.025 158.618 387.058 158.999C388.09 159.38 389.045 159.984 389.868 160.777C390.691 161.569 391.366 162.535 391.854 163.617C392.342 164.7 392.633 165.88 392.712 167.088C392.791 168.296 392.655 169.51 392.313 170.66V170.665Z" fill="#6C63FF"/>
<path opacity="0.5" d="M397.327 202.254C393.747 205.444 378.232 207.491 378.232 207.491C378.232 207.491 383.404 191.05 386.984 187.864C387.826 187.048 388.808 186.429 389.87 186.046C390.932 185.663 392.052 185.523 393.164 185.635C394.276 185.746 395.356 186.107 396.34 186.695C397.323 187.283 398.19 188.087 398.888 189.057C399.585 190.028 400.1 191.146 400.4 192.343C400.699 193.541 400.779 194.794 400.633 196.026C400.487 197.259 400.119 198.446 399.551 199.516C398.983 200.587 398.227 201.518 397.327 202.254Z" fill="#6C63FF"/>
<path opacity="0.5" d="M383.133 247.818C378.606 248.562 364.273 241.615 364.273 241.615C364.273 241.615 376.184 230.326 380.711 229.582C381.787 229.405 382.884 229.465 383.939 229.76C384.994 230.055 385.987 230.579 386.86 231.301C387.734 232.023 388.471 232.93 389.029 233.97C389.588 235.009 389.958 236.161 390.117 237.36C390.276 238.558 390.221 239.78 389.957 240.955C389.692 242.13 389.222 243.236 388.573 244.209C387.925 245.181 387.111 246.002 386.177 246.625C385.244 247.247 384.21 247.659 383.133 247.836V247.818Z" fill="#6C63FF"/>
<path opacity="0.5" d="M365.419 279.603C361.071 281.189 345.887 277.024 345.887 277.024C345.887 277.024 355.915 263.657 360.263 262.071C362.351 261.307 364.625 261.498 366.586 262.602C368.547 263.706 370.034 265.632 370.72 267.957C371.405 270.282 371.234 272.815 370.243 274.999C369.252 277.183 367.522 278.839 365.435 279.603H365.419Z" fill="#6C63FF"/>
<path opacity="0.5" d="M361.441 202.33C363.553 206.849 377.039 215.697 377.039 215.697C377.039 215.697 378.264 198.333 376.151 193.81C375.649 192.735 374.962 191.781 374.129 191.002C373.296 190.223 372.333 189.635 371.296 189.27C370.259 188.906 369.167 188.773 368.084 188.878C367 188.983 365.946 189.325 364.981 189.884C364.016 190.443 363.16 191.209 362.46 192.137C361.761 193.064 361.233 194.137 360.905 195.292C360.578 196.447 360.458 197.663 360.553 198.87C360.647 200.076 360.955 201.251 361.457 202.325L361.441 202.33Z" fill="#6C63FF"/>
<path opacity="0.5" d="M341.149 239.79C344.38 243.401 359.607 247.353 359.607 247.353C359.607 247.353 356.111 230.375 352.885 226.764C351.334 225.031 349.229 224.055 347.032 224.05C344.836 224.045 342.727 225.013 341.171 226.74C339.615 228.466 338.738 230.811 338.734 233.258C338.73 235.704 339.599 238.052 341.149 239.785V239.79Z" fill="#6C63FF"/>
<path opacity="0.5" d="M325.913 279.217C328.547 283.382 342.959 290.148 342.959 290.148C342.959 290.148 342.092 272.758 339.455 268.589C338.844 267.555 338.054 266.669 337.13 265.982C336.206 265.296 335.167 264.823 334.076 264.593C332.985 264.363 331.863 264.379 330.778 264.642C329.692 264.904 328.665 265.407 327.758 266.12C326.851 266.834 326.081 267.743 325.496 268.794C324.91 269.845 324.521 271.017 324.35 272.239C324.18 273.462 324.232 274.71 324.503 275.909C324.774 277.109 325.259 278.235 325.929 279.222L325.913 279.217Z" fill="#6C63FF"/>
<path opacity="0.5" d="M344.742 293.648C344.742 293.648 332.807 274.313 334.9 256.121C335.822 248.497 334.499 240.745 331.129 234.03C329.506 230.856 327.626 227.855 325.512 225.063" stroke="#535461" stroke-width="2" stroke-miterlimit="10"/>
<path opacity="0.5" d="M326.772 213.588C327.54 216.211 325.511 225.364 325.511 225.364C325.511 225.364 319.015 219.312 318.247 216.693C317.878 215.434 317.973 214.064 318.511 212.882C319.049 211.701 319.987 210.807 321.117 210.395C322.248 209.984 323.479 210.09 324.539 210.689C325.599 211.289 326.403 212.333 326.772 213.592V213.588Z" fill="#6C63FF"/>
<path opacity="0.5" d="M338.081 225.546C337.449 228.204 331.275 234.668 331.275 234.668C331.275 234.668 328.777 225.656 329.409 222.989C329.714 221.708 330.462 220.615 331.491 219.949C332.519 219.283 333.743 219.099 334.893 219.438C336.043 219.777 337.025 220.611 337.623 221.756C338.221 222.902 338.386 224.265 338.081 225.546Z" fill="#6C63FF"/>
<path opacity="0.5" d="M345.059 250.472C343.305 252.417 335.051 254.521 335.051 254.521C335.051 254.521 336.976 245.337 338.734 243.392C339.152 242.929 339.648 242.563 340.193 242.314C340.738 242.065 341.322 241.937 341.911 241.939C342.5 241.941 343.083 242.073 343.627 242.326C344.171 242.579 344.664 242.949 345.079 243.414C345.495 243.88 345.824 244.432 346.047 245.039C346.271 245.646 346.385 246.296 346.384 246.952C346.382 247.608 346.264 248.258 346.037 248.863C345.809 249.469 345.477 250.018 345.059 250.481V250.472Z" fill="#6C63FF"/>
<path opacity="0.5" d="M346.527 270.662C345.091 272.908 337.258 276.528 337.258 276.528C337.258 276.528 337.763 267.113 339.199 264.867C339.54 264.332 339.973 263.878 340.471 263.529C340.97 263.18 341.526 262.945 342.107 262.835C342.687 262.726 343.282 262.745 343.856 262.891C344.43 263.037 344.973 263.308 345.453 263.688C345.933 264.068 346.341 264.55 346.654 265.105C346.967 265.661 347.179 266.28 347.277 266.927C347.375 267.573 347.358 268.235 347.227 268.875C347.095 269.514 346.852 270.118 346.511 270.653L346.527 270.662Z" fill="#6C63FF"/>
<path opacity="0.5" d="M322.475 238.425C324.699 239.639 333.12 238.665 333.12 238.665C333.12 238.665 328.637 230.663 326.413 229.454C325.345 228.872 324.113 228.787 322.989 229.217C321.864 229.647 320.939 230.557 320.417 231.746C319.894 232.936 319.818 234.308 320.204 235.561C320.59 236.813 321.407 237.844 322.475 238.425Z" fill="#6C63FF"/>
<path opacity="0.5" d="M324.461 262.018C326.911 262.434 334.684 258.699 334.684 258.699C334.684 258.699 328.256 252.559 325.809 252.16C324.633 251.961 323.435 252.29 322.477 253.075C321.519 253.86 320.88 255.037 320.701 256.347C320.523 257.656 320.818 258.992 321.523 260.058C322.228 261.125 323.285 261.836 324.461 262.036V262.018Z" fill="#6C63FF"/>
<path opacity="0.5" d="M329.212 284.645C331.563 285.531 339.793 283.316 339.793 283.316C339.793 283.316 334.391 276.054 332.04 275.181C330.911 274.763 329.68 274.862 328.616 275.456C327.553 276.05 326.744 277.089 326.369 278.347C325.994 279.604 326.083 280.976 326.616 282.16C327.149 283.345 328.083 284.245 329.212 284.662V284.645Z" fill="#6C63FF"/>
<path opacity="0.5" d="M326.772 213.588C327.54 216.211 325.511 225.364 325.511 225.364C325.511 225.364 319.015 219.312 318.247 216.693C317.878 215.434 317.973 214.064 318.511 212.882C319.049 211.701 319.987 210.807 321.117 210.395C322.248 209.984 323.479 210.09 324.539 210.689C325.599 211.289 326.403 212.333 326.772 213.592V213.588Z" fill="white"/>
<path opacity="0.5" d="M338.081 225.546C337.449 228.204 331.275 234.668 331.275 234.668C331.275 234.668 328.777 225.656 329.409 222.989C329.714 221.708 330.462 220.615 331.491 219.949C332.519 219.283 333.743 219.099 334.893 219.438C336.043 219.777 337.025 220.611 337.623 221.756C338.221 222.902 338.386 224.265 338.081 225.546Z" fill="white"/>
<path opacity="0.5" d="M345.059 250.472C343.305 252.417 335.051 254.521 335.051 254.521C335.051 254.521 336.976 245.337 338.734 243.392C339.152 242.929 339.648 242.563 340.193 242.314C340.738 242.065 341.322 241.937 341.911 241.939C342.5 241.941 343.083 242.073 343.627 242.326C344.171 242.579 344.664 242.949 345.079 243.414C345.495 243.88 345.824 244.432 346.047 245.039C346.271 245.646 346.385 246.296 346.384 246.952C346.382 247.608 346.264 248.258 346.037 248.863C345.809 249.469 345.477 250.018 345.059 250.481V250.472Z" fill="white"/>
<path opacity="0.5" d="M346.527 270.662C345.091 272.908 337.258 276.528 337.258 276.528C337.258 276.528 337.763 267.113 339.199 264.867C339.54 264.332 339.973 263.878 340.471 263.529C340.97 263.18 341.526 262.945 342.107 262.835C342.687 262.726 343.282 262.745 343.856 262.891C344.43 263.037 344.973 263.308 345.453 263.688C345.933 264.068 346.341 264.55 346.654 265.105C346.967 265.661 347.179 266.28 347.277 266.927C347.375 267.573 347.358 268.235 347.227 268.875C347.095 269.514 346.852 270.118 346.511 270.653L346.527 270.662Z" fill="white"/>
<path opacity="0.5" d="M322.475 238.425C324.699 239.639 333.12 238.665 333.12 238.665C333.12 238.665 328.637 230.663 326.413 229.454C325.345 228.872 324.113 228.787 322.989 229.217C321.864 229.647 320.939 230.557 320.417 231.746C319.894 232.936 319.818 234.308 320.204 235.561C320.59 236.813 321.407 237.844 322.475 238.425Z" fill="white"/>
<path opacity="0.5" d="M324.461 262.018C326.911 262.434 334.684 258.699 334.684 258.699C334.684 258.699 328.256 252.559 325.809 252.16C324.633 251.961 323.435 252.29 322.477 253.075C321.519 253.86 320.88 255.037 320.701 256.347C320.523 257.656 320.818 258.992 321.523 260.058C322.228 261.125 323.285 261.836 324.461 262.036V262.018Z" fill="white"/>
<path opacity="0.5" d="M329.212 284.645C331.563 285.531 339.793 283.316 339.793 283.316C339.793 283.316 334.391 276.054 332.04 275.181C330.911 274.763 329.68 274.862 328.616 275.456C327.553 276.05 326.744 277.089 326.369 278.347C325.994 279.604 326.083 280.976 326.616 282.16C327.149 283.345 328.083 284.245 329.212 284.662V284.645Z" fill="white"/>
<path opacity="0.5" d="M322.659 346.074H356.604L365.093 288.42H314.174L322.659 346.074Z" fill="#474059"/>
<path opacity="0.1" d="M320.67 288.42L328.598 342.295H357.161L356.604 346.074H322.659L314.174 288.42H320.67Z" fill="black"/>
</g>
<path d="M329.096 17.4076H80.0703V352.047H329.096V17.4076Z" fill="url(#paint0_linear)"/>
<path d="M325.914 21.6875H83.2529V347.776H325.914V21.6875Z" fill="white"/>
<path d="M275.392 58.461H177.532V63.7777H275.392V58.461Z" fill="#C0BCCF"/>
<path d="M275.392 75.2971H177.532V80.6138H275.392V75.2971Z" fill="#C0BCCF"/>
<path d="M251.923 92.1332H201.004V97.4498H251.923V92.1332Z" fill="#6C63FF"/>
<path opacity="0.5" d="M275.392 165.237H177.532V170.554H275.392V165.237Z" fill="#C0BCCF"/>
<path opacity="0.5" d="M275.392 182.073H177.532V187.39H275.392V182.073Z" fill="#C0BCCF"/>
<path opacity="0.5" d="M251.923 198.909H201.004V204.226H251.923V198.909Z" fill="#6C63FF"/>
<path opacity="0.5" d="M275.392 272.013H177.532V277.33H275.392V272.013Z" fill="#C0BCCF"/>
<path opacity="0.5" d="M275.392 288.849H177.532V294.166H275.392V288.849Z" fill="#C0BCCF"/>
<path opacity="0.5" d="M251.923 305.685H201.004V311.002H251.923V305.685Z" fill="#6C63FF"/>
<g opacity="0.5">
<path opacity="0.5" d="M143.078 194.891L141.025 193.863C141.057 193.516 141.07 193.166 141.065 192.817C141.08 192.522 141.08 192.226 141.065 191.931C140.862 189.601 139.53 187.572 138.587 185.44C137.724 183.495 137.176 181.395 136.968 179.238C136.717 176.579 136.968 173.824 136.093 171.325C135.381 169.309 133.972 167.625 132.465 166.137C130.772 164.368 128.795 162.971 126.637 162.021C124.433 161.134 121.899 160.909 119.695 161.812C117.706 162.628 116.175 164.254 114.695 165.835C113.62 166.89 112.671 168.093 111.87 169.415C110.967 171.063 110.581 172.96 110.279 174.829C109.804 177.823 109.477 180.843 109.3 183.876C109.145 186.406 108.903 189.277 106.961 190.828C106.015 191.586 104.682 192.011 104.248 193.158C104.125 193.503 104.076 193.875 104.105 194.244C104.093 194.551 104.113 194.859 104.165 195.161C104.193 195.338 104.224 195.511 104.264 195.688C103.707 197.231 103.239 198.811 102.864 200.42C102.574 201.616 102.307 202.79 102.068 203.929H102.713H103.055L106.762 204.027H106.814L110.792 204.129H110.812L114.52 204.226H114.611L115.681 204.31H116.031L130.858 204.691H130.937L131.924 204.718H132.27L135.237 204.793L139.613 204.904H139.645L142.939 204.992H143.289H143.965L143.79 201.147C144.514 195.259 143.078 194.891 143.078 194.891ZM126.422 194.421C126.422 197.682 123.287 201.674 123.287 201.674L120.133 196.889L120.248 196.703L123.287 201.311C123.287 201.311 126.422 197.323 126.422 194.058C126.495 193.892 126.579 193.732 126.673 193.579L126.744 193.827C126.624 194.016 126.516 194.215 126.422 194.421ZM131.243 207.217C131.243 207.053 131.243 206.884 131.216 206.72C131.188 206.556 131.192 206.41 131.172 206.251C131.152 206.091 131.136 205.936 131.116 205.777C131.096 205.617 131.068 205.462 131.041 205.303C131.013 205.143 130.985 204.988 130.953 204.829C130.953 204.775 130.933 204.727 130.921 204.669C130.877 204.461 130.83 204.253 130.778 204.044C130.726 203.836 130.694 203.708 130.647 203.544C130.647 203.468 130.607 203.393 130.583 203.322C130.559 203.251 130.515 203.083 130.48 202.963L130.408 202.733C130.376 202.631 130.344 202.525 130.309 202.423C130.249 202.237 130.185 202.055 130.122 201.869C130.058 201.683 129.99 201.501 129.923 201.32C129.787 200.947 129.64 200.58 129.493 200.207C128.916 198.772 128.268 197.359 127.671 195.959C127.351 195.226 127.067 194.475 126.82 193.708L126.744 193.819C126.624 194.009 126.516 194.209 126.422 194.417C126.422 197.678 123.287 201.67 123.287 201.67L120.133 196.885L117.372 201.315C116.974 201.537 116.576 202.29 116.266 203.362C116.179 203.65 116.095 203.969 116.015 204.301C115.96 204.527 115.908 204.744 115.86 204.997C115.832 205.117 115.809 205.236 115.785 205.36L115.713 205.737V205.794C115.665 206.051 115.618 206.317 115.574 206.587C115.53 206.858 115.478 207.168 115.435 207.474C115.403 207.666 115.375 207.856 115.351 208.045C115.295 208.413 115.248 208.785 115.2 209.157C115.172 209.374 115.144 209.6 115.12 209.8L115.025 210.624C115.228 211.302 115.455 211.953 115.689 212.635C115.838 212.993 115.926 213.38 115.948 213.774C120.842 215.227 125.992 215.227 130.885 213.774C130.884 213.761 130.884 213.747 130.885 213.734C130.812 213.363 130.78 212.984 130.79 212.604C130.87 211.539 131.003 210.48 131.188 209.432C131.247 208.915 131.272 208.394 131.263 207.872V207.686C131.251 207.518 131.247 207.367 131.243 207.221V207.217ZM131.243 207.217C131.243 207.053 131.243 206.884 131.216 206.72C131.188 206.556 131.192 206.41 131.172 206.251C131.152 206.091 131.136 205.936 131.116 205.777C131.096 205.617 131.068 205.462 131.041 205.303C131.013 205.143 130.985 204.988 130.953 204.829C130.953 204.775 130.933 204.727 130.921 204.669C130.877 204.461 130.83 204.253 130.778 204.044C130.726 203.836 130.694 203.708 130.647 203.544C130.647 203.468 130.607 203.393 130.583 203.322C130.559 203.251 130.515 203.083 130.48 202.963L130.408 202.733C130.376 202.631 130.344 202.525 130.309 202.423C130.249 202.237 130.185 202.055 130.122 201.869C130.058 201.683 129.99 201.501 129.923 201.32C129.787 200.947 129.64 200.58 129.493 200.207C128.916 198.772 128.268 197.359 127.671 195.959C127.351 195.226 127.067 194.475 126.82 193.708L126.744 193.819C126.624 194.009 126.516 194.209 126.422 194.417C126.422 197.678 123.287 201.67 123.287 201.67L120.133 196.885L117.372 201.315C116.974 201.537 116.576 202.29 116.266 203.362C116.179 203.65 116.095 203.969 116.015 204.301C115.96 204.527 115.908 204.744 115.86 204.997C115.832 205.117 115.809 205.236 115.785 205.36L115.713 205.737V205.794C115.665 206.051 115.618 206.317 115.574 206.587C115.53 206.858 115.478 207.168 115.435 207.474C115.403 207.666 115.375 207.856 115.351 208.045C115.295 208.413 115.248 208.785 115.2 209.157C115.172 209.374 115.144 209.6 115.12 209.8L115.025 210.624C115.228 211.302 115.455 211.953 115.689 212.635C115.838 212.993 115.926 213.38 115.948 213.774C120.842 215.227 125.992 215.227 130.885 213.774C130.884 213.761 130.884 213.747 130.885 213.734C130.812 213.363 130.78 212.984 130.79 212.604C130.87 211.539 131.003 210.48 131.188 209.432C131.247 208.915 131.272 208.394 131.263 207.872V207.686C131.251 207.518 131.247 207.367 131.243 207.221V207.217ZM131.243 207.217C131.243 207.053 131.243 206.884 131.216 206.72C131.188 206.556 131.192 206.41 131.172 206.251C131.152 206.091 131.136 205.936 131.116 205.777C131.096 205.617 131.068 205.462 131.041 205.303C131.013 205.143 130.985 204.988 130.953 204.829C130.953 204.775 130.933 204.727 130.921 204.669C130.877 204.461 130.83 204.253 130.778 204.044C130.726 203.836 130.694 203.708 130.647 203.544C130.647 203.468 130.607 203.393 130.583 203.322C130.559 203.251 130.515 203.083 130.48 202.963L130.408 202.733C130.376 202.631 130.344 202.525 130.309 202.423C130.249 202.237 130.185 202.055 130.122 201.869C130.058 201.683 129.99 201.501 129.923 201.32C129.787 200.947 129.64 200.58 129.493 200.207C128.916 198.772 128.268 197.359 127.671 195.959C127.351 195.226 127.067 194.475 126.82 193.708L126.744 193.819C126.624 194.009 126.516 194.209 126.422 194.417C126.422 197.678 123.287 201.67 123.287 201.67L120.133 196.885L117.372 201.315C116.974 201.537 116.576 202.29 116.266 203.362C116.179 203.65 116.095 203.969 116.015 204.301C115.96 204.527 115.908 204.744 115.86 204.997C115.832 205.117 115.809 205.236 115.785 205.36L115.713 205.737V205.794C115.665 206.051 115.618 206.317 115.574 206.587C115.53 206.858 115.478 207.168 115.435 207.474C115.403 207.666 115.375 207.856 115.351 208.045C115.295 208.413 115.248 208.785 115.2 209.157C115.172 209.374 115.144 209.6 115.12 209.8L115.025 210.624C115.228 211.302 115.455 211.953 115.689 212.635C115.838 212.993 115.926 213.38 115.948 213.774C120.842 215.227 125.992 215.227 130.885 213.774C130.884 213.761 130.884 213.747 130.885 213.734C130.812 213.363 130.78 212.984 130.79 212.604C130.87 211.539 131.003 210.48 131.188 209.432C131.247 208.915 131.272 208.394 131.263 207.872V207.686C131.251 207.518 131.247 207.367 131.243 207.221V207.217ZM131.243 207.217C131.243 207.053 131.243 206.884 131.216 206.72C131.188 206.556 131.192 206.41 131.172 206.251C131.152 206.091 131.136 205.936 131.116 205.777C131.096 205.617 131.068 205.462 131.041 205.303C131.013 205.143 130.985 204.988 130.953 204.829C130.953 204.775 130.933 204.727 130.921 204.669C130.877 204.461 130.83 204.253 130.778 204.044C130.726 203.836 130.694 203.708 130.647 203.544C130.647 203.468 130.607 203.393 130.583 203.322C130.559 203.251 130.515 203.083 130.48 202.963L130.408 202.733C130.376 202.631 130.344 202.525 130.309 202.423C130.249 202.237 130.185 202.055 130.122 201.869C130.058 201.683 129.99 201.501 129.923 201.32C129.787 200.947 129.64 200.58 129.493 200.207C128.916 198.772 128.268 197.359 127.671 195.959C127.351 195.226 127.067 194.475 126.82 193.708L126.744 193.819C126.624 194.009 126.516 194.209 126.422 194.417C126.422 197.678 123.287 201.67 123.287 201.67L120.133 196.885L117.372 201.315C116.974 201.537 116.576 202.29 116.266 203.362C116.179 203.65 116.095 203.969 116.015 204.301C115.96 204.527 115.908 204.744 115.86 204.997C115.832 205.117 115.809 205.236 115.785 205.36L115.713 205.737V205.794C115.665 206.051 115.618 206.317 115.574 206.587C115.53 206.858 115.478 207.168 115.435 207.474C115.403 207.666 115.375 207.856 115.351 208.045C115.295 208.413 115.248 208.785 115.2 209.157C115.172 209.374 115.144 209.6 115.12 209.8L115.025 210.624C115.228 211.302 115.455 211.953 115.689 212.635C115.838 212.993 115.926 213.38 115.948 213.774C120.842 215.227 125.992 215.227 130.885 213.774C130.884 213.761 130.884 213.747 130.885 213.734C130.812 213.363 130.78 212.984 130.79 212.604C130.87 211.539 131.003 210.48 131.188 209.432C131.247 208.915 131.272 208.394 131.263 207.872V207.686C131.251 207.518 131.247 207.367 131.243 207.221V207.217Z" fill="url(#paint1_linear)"/>
<path opacity="0.5" d="M131.386 176.314H113.087V190.048H131.386V176.314Z" fill="#493545"/>
<path opacity="0.5" d="M134.426 191.462L126.768 203.477L118.764 202.702C118.764 202.702 108.322 203.473 115.284 194.563C118.629 190.279 119.723 186.708 119.958 184.16C120.212 181.404 119.461 179.836 119.461 179.836L128.161 178.675C127.768 179.981 127.718 181.384 128.017 182.72C129.107 187.753 134.426 191.462 134.426 191.462Z" fill="#C77485"/>
<path opacity="0.1" d="M128.013 182.707C126.878 183.664 125.55 184.296 124.145 184.548C122.74 184.8 121.3 184.663 119.953 184.151C120.208 181.395 119.456 179.827 119.456 179.827L128.156 178.666C127.764 179.97 127.715 181.372 128.013 182.707Z" fill="black"/>
<path opacity="0.5" d="M122.766 184.284C127.571 184.284 131.466 179.946 131.466 174.595C131.466 169.243 127.571 164.905 122.766 164.905C117.962 164.905 114.066 169.243 114.066 174.595C114.066 179.946 117.962 184.284 122.766 184.284Z" fill="#C77485"/>
<path opacity="0.1" d="M134.108 191.958L133.905 191.072L133.73 190.292L133.471 189.14L133.424 188.927L133.384 188.75C133.384 188.75 133.591 188.055 132.226 188.281L131.972 188.329C131.757 188.378 131.506 188.444 131.22 188.533L130.961 188.622L130.619 188.741C129.536 189.134 128.548 189.798 127.731 190.682C127.364 191.073 127.04 191.51 126.764 191.984C126.737 192.029 126.717 192.069 126.693 192.104C126.599 192.269 126.515 192.44 126.442 192.618C126.442 196.109 123.308 200.371 123.308 200.371L120.248 195.449L120.189 195.352L119.461 194.173L119.202 193.792L119.115 193.659L117.523 191.28L117.126 190.686L116.994 190.487L116.799 190.199L116.342 189.521L114.552 190.686L112.165 192.237L110.773 202.316V202.596L110.816 203.429L111.107 208.905V208.98L110.598 211.248L110.673 211.293C111.875 212.015 113.125 212.631 114.413 213.136L114.751 213.269C115.149 213.415 115.522 213.548 115.912 213.676C115.927 213.742 115.937 213.809 115.944 213.876C115.944 213.814 115.944 213.747 115.944 213.685C120.826 215.239 126 215.239 130.882 213.685L130.973 213.654C131.2 213.583 131.431 213.508 131.654 213.424L132.016 213.295C132.997 212.93 133.959 212.501 134.896 212.01L135.23 204.08L135.468 198.36V198.032L134.108 191.958Z" fill="black"/>
<path opacity="0.5" d="M131.243 206.689C131.243 206.512 131.243 206.335 131.215 206.158C131.187 205.98 131.191 205.825 131.172 205.657C131.152 205.489 131.136 205.32 131.116 205.152C131.096 204.984 131.068 204.815 131.04 204.647C131.012 204.479 130.985 204.31 130.953 204.142C130.953 204.084 130.933 204.031 130.921 203.973C130.877 203.752 130.829 203.53 130.778 203.304C130.726 203.078 130.694 202.946 130.646 202.768C130.646 202.689 130.607 202.609 130.583 202.534C130.559 202.458 130.515 202.277 130.479 202.148L130.408 201.9C130.376 201.789 130.344 201.678 130.308 201.568C130.249 201.368 130.185 201.173 130.121 200.974C130.058 200.775 129.99 200.58 129.922 200.385C129.787 199.986 129.64 199.592 129.493 199.197C128.916 197.664 128.268 196.154 127.671 194.656C127.35 193.871 127.066 193.068 126.82 192.25L126.744 192.37C126.623 192.574 126.515 192.787 126.422 193.008C126.422 196.495 123.287 200.761 123.287 200.761L120.132 195.644L117.372 200.371C116.974 200.606 116.576 201.413 116.266 202.56C116.178 202.87 116.095 203.207 116.015 203.566C115.959 203.805 115.908 204.058 115.86 204.31C115.832 204.439 115.808 204.567 115.784 204.7L115.713 205.103V205.165C115.665 205.44 115.617 205.724 115.574 206.011C115.53 206.299 115.478 206.632 115.434 206.946C115.403 207.15 115.375 207.354 115.351 207.558C115.295 207.952 115.247 208.351 115.2 208.745C115.172 208.976 115.144 209.188 115.12 209.432L115.025 210.318C115.228 211.045 115.454 211.762 115.689 212.467C115.839 212.853 115.926 213.265 115.948 213.685C120.829 215.239 126.004 215.239 130.885 213.685C130.883 213.67 130.883 213.656 130.885 213.641C130.812 213.243 130.78 212.837 130.79 212.431C130.87 211.295 131.003 210.163 131.187 209.042C131.246 208.489 131.271 207.933 131.263 207.376V207.177C131.251 207.008 131.247 206.849 131.243 206.689ZM131.243 206.689C131.243 206.512 131.243 206.335 131.215 206.158C131.187 205.98 131.191 205.825 131.172 205.657C131.152 205.489 131.136 205.32 131.116 205.152C131.096 204.984 131.068 204.815 131.04 204.647C131.012 204.479 130.985 204.31 130.953 204.142C130.953 204.084 130.933 204.031 130.921 203.973C130.877 203.752 130.829 203.53 130.778 203.304C130.726 203.078 130.694 202.946 130.646 202.768C130.646 202.689 130.607 202.609 130.583 202.534C130.559 202.458 130.515 202.277 130.479 202.148L130.408 201.9C130.376 201.789 130.344 201.678 130.308 201.568C130.249 201.368 130.185 201.173 130.121 200.974C130.058 200.775 129.99 200.58 129.922 200.385C129.787 199.986 129.64 199.592 129.493 199.197C128.916 197.664 128.268 196.154 127.671 194.656C127.35 193.871 127.066 193.068 126.82 192.25L126.744 192.37C126.623 192.574 126.515 192.787 126.422 193.008C126.422 196.495 123.287 200.761 123.287 200.761L120.132 195.644L117.372 200.371C116.974 200.606 116.576 201.413 116.266 202.56C116.178 202.87 116.095 203.207 116.015 203.566C115.959 203.805 115.908 204.058 115.86 204.31C115.832 204.439 115.808 204.567 115.784 204.7L115.713 205.103V205.165C115.665 205.44 115.617 205.724 115.574 206.011C115.53 206.299 115.478 206.632 115.434 206.946C115.403 207.15 115.375 207.354 115.351 207.558C115.295 207.952 115.247 208.351 115.2 208.745C115.172 208.976 115.144 209.188 115.12 209.432L115.025 210.318C115.228 211.045 115.454 211.762 115.689 212.467C115.839 212.853 115.926 213.265 115.948 213.685C120.829 215.239 126.004 215.239 130.885 213.685C130.883 213.67 130.883 213.656 130.885 213.641C130.812 213.243 130.78 212.837 130.79 212.431C130.87 211.295 131.003 210.163 131.187 209.042C131.246 208.489 131.271 207.933 131.263 207.376V207.177C131.251 207.008 131.247 206.849 131.243 206.689ZM131.243 206.689C131.243 206.512 131.243 206.335 131.215 206.158C131.187 205.98 131.191 205.825 131.172 205.657C131.152 205.489 131.136 205.32 131.116 205.152C131.096 204.984 131.068 204.815 131.04 204.647C131.012 204.479 130.985 204.31 130.953 204.142C130.953 204.084 130.933 204.031 130.921 203.973C130.877 203.752 130.829 203.53 130.778 203.304C130.726 203.078 130.694 202.946 130.646 202.768C130.646 202.689 130.607 202.609 130.583 202.534C130.559 202.458 130.515 202.277 130.479 202.148L130.408 201.9C130.376 201.789 130.344 201.678 130.308 201.568C130.249 201.368 130.185 201.173 130.121 200.974C130.058 200.775 129.99 200.58 129.922 200.385C129.787 199.986 129.64 199.592 129.493 199.197C128.916 197.664 128.268 196.154 127.671 194.656C127.35 193.871 127.066 193.068 126.82 192.25L126.744 192.37C126.623 192.574 126.515 192.787 126.422 193.008C126.422 196.495 123.287 200.761 123.287 200.761L120.132 195.644L117.372 200.371C116.974 200.606 116.576 201.413 116.266 202.56C116.178 202.87 116.095 203.207 116.015 203.566C115.959 203.805 115.908 204.058 115.86 204.31C115.832 204.439 115.808 204.567 115.784 204.7L115.713 205.103V205.165C115.665 205.44 115.617 205.724 115.574 206.011C115.53 206.299 115.478 206.632 115.434 206.946C115.403 207.15 115.375 207.354 115.351 207.558C115.295 207.952 115.247 208.351 115.2 208.745C115.172 208.976 115.144 209.188 115.12 209.432L115.025 210.318C115.228 211.045 115.454 211.762 115.689 212.467C115.839 212.853 115.926 213.265 115.948 213.685C120.829 215.239 126.004 215.239 130.885 213.685C130.883 213.67 130.883 213.656 130.885 213.641C130.812 213.243 130.78 212.837 130.79 212.431C130.87 211.295 131.003 210.163 131.187 209.042C131.246 208.489 131.271 207.933 131.263 207.376V207.177C131.251 207.008 131.247 206.849 131.243 206.689ZM135.46 198.373L134.04 192.06L133.797 190.979L133.729 190.682L133.383 189.14C133.384 189.127 133.384 189.113 133.383 189.1C133.392 189.032 133.382 188.963 133.356 188.901C133.304 188.786 133.173 188.666 132.866 188.635C132.75 188.626 132.633 188.626 132.516 188.635C132.171 188.673 131.828 188.744 131.494 188.848C131.331 188.896 131.156 188.949 130.969 189.016L130.627 189.136H130.595C129.678 189.47 128.828 189.997 128.089 190.686C127.6 191.14 127.172 191.668 126.816 192.255L126.74 192.374C126.619 192.578 126.511 192.791 126.418 193.012C126.418 196.499 123.283 200.766 123.283 200.766L120.128 195.648L119.949 195.36L119.918 195.312L119.46 194.563L119.114 194.049L119.023 193.916L117.392 191.493L116.874 190.708V190.682L116.695 190.412L116.353 189.906L115.16 190.682L112.176 192.618L110.8 202.591V202.697L110.84 203.424L111.134 208.976V209.29L110.685 211.288C111.886 212.01 113.136 212.626 114.424 213.131L114.762 213.264C115.16 213.41 115.534 213.543 115.924 213.672C115.938 213.738 115.949 213.804 115.955 213.871C115.955 213.809 115.955 213.743 115.955 213.681C120.837 215.234 126.012 215.234 130.893 213.681L130.985 213.65C131.211 213.579 131.442 213.504 131.665 213.419L132.027 213.291C133.008 212.925 133.97 212.496 134.907 212.006L135.237 204.084L135.476 198.426L135.46 198.373ZM115.896 213.672C115.91 213.738 115.921 213.804 115.928 213.871C115.928 213.809 115.928 213.743 115.928 213.681L115.896 213.672ZM131.243 206.689C131.243 206.512 131.243 206.335 131.215 206.158C131.187 205.98 131.191 205.825 131.172 205.657C131.152 205.489 131.136 205.32 131.116 205.152C131.096 204.984 131.068 204.815 131.04 204.647C131.012 204.479 130.985 204.31 130.953 204.142C130.953 204.084 130.933 204.031 130.921 203.973C130.877 203.752 130.829 203.53 130.778 203.304C130.726 203.078 130.694 202.946 130.646 202.768C130.646 202.689 130.607 202.609 130.583 202.534C130.559 202.458 130.515 202.277 130.479 202.148L130.408 201.9C130.376 201.789 130.344 201.678 130.308 201.568C130.249 201.368 130.185 201.173 130.121 200.974C130.058 200.775 129.99 200.58 129.922 200.385C129.787 199.986 129.64 199.592 129.493 199.197C128.916 197.664 128.268 196.154 127.671 194.656C127.35 193.871 127.066 193.068 126.82 192.25L126.744 192.37C126.623 192.574 126.515 192.787 126.422 193.008C126.422 196.495 123.287 200.761 123.287 200.761L120.132 195.644L117.372 200.371C116.974 200.606 116.576 201.413 116.266 202.56C116.178 202.87 116.095 203.207 116.015 203.566C115.959 203.805 115.908 204.058 115.86 204.31C115.832 204.439 115.808 204.567 115.784 204.7L115.713 205.103V205.165C115.665 205.44 115.617 205.724 115.574 206.011C115.53 206.299 115.478 206.632 115.434 206.946C115.403 207.15 115.375 207.354 115.351 207.558C115.295 207.952 115.247 208.351 115.2 208.745C115.172 208.976 115.144 209.188 115.12 209.432L115.025 210.318C115.228 211.045 115.454 211.762 115.689 212.467C115.839 212.853 115.926 213.265 115.948 213.685C120.829 215.239 126.004 215.239 130.885 213.685C130.883 213.67 130.883 213.656 130.885 213.641C130.812 213.243 130.78 212.837 130.79 212.431C130.87 211.295 131.003 210.163 131.187 209.042C131.246 208.489 131.271 207.933 131.263 207.376V207.177C131.251 207.008 131.247 206.849 131.243 206.689ZM131.243 206.689C131.243 206.512 131.243 206.335 131.215 206.158C131.187 205.98 131.191 205.825 131.172 205.657C131.152 205.489 131.136 205.32 131.116 205.152C131.096 204.984 131.068 204.815 131.04 204.647C131.012 204.479 130.985 204.31 130.953 204.142C130.953 204.084 130.933 204.031 130.921 203.973C130.877 203.752 130.829 203.53 130.778 203.304C130.726 203.078 130.694 202.946 130.646 202.768C130.646 202.689 130.607 202.609 130.583 202.534C130.559 202.458 130.515 202.277 130.479 202.148L130.408 201.9C130.376 201.789 130.344 201.678 130.308 201.568C130.249 201.368 130.185 201.173 130.121 200.974C130.058 200.775 129.99 200.58 129.922 200.385C129.787 199.986 129.64 199.592 129.493 199.197C128.916 197.664 128.268 196.154 127.671 194.656C127.35 193.871 127.066 193.068 126.82 192.25L126.744 192.37C126.623 192.574 126.515 192.787 126.422 193.008C126.422 196.495 123.287 200.761 123.287 200.761L120.132 195.644L117.372 200.371C116.974 200.606 116.576 201.413 116.266 202.56C116.178 202.87 116.095 203.207 116.015 203.566C115.959 203.805 115.908 204.058 115.86 204.31C115.832 204.439 115.808 204.567 115.784 204.7L115.713 205.103V205.165C115.665 205.44 115.617 205.724 115.574 206.011C115.53 206.299 115.478 206.632 115.434 206.946C115.403 207.15 115.375 207.354 115.351 207.558C115.295 207.952 115.247 208.351 115.2 208.745C115.172 208.976 115.144 209.188 115.12 209.432L115.025 210.318C115.228 211.045 115.454 211.762 115.689 212.467C115.839 212.853 115.926 213.265 115.948 213.685C120.829 215.239 126.004 215.239 130.885 213.685C130.883 213.67 130.883 213.656 130.885 213.641C130.812 213.243 130.78 212.837 130.79 212.431C130.87 211.295 131.003 210.163 131.187 209.042C131.246 208.489 131.271 207.933 131.263 207.376V207.177C131.251 207.008 131.247 206.849 131.243 206.689ZM131.243 206.689C131.243 206.512 131.243 206.335 131.215 206.158C131.187 205.98 131.191 205.825 131.172 205.657C131.152 205.489 131.136 205.32 131.116 205.152C131.096 204.984 131.068 204.815 131.04 204.647C131.012 204.479 130.985 204.31 130.953 204.142C130.953 204.084 130.933 204.031 130.921 203.973C130.877 203.752 130.829 203.53 130.778 203.304C130.726 203.078 130.694 202.946 130.646 202.768C130.646 202.689 130.607 202.609 130.583 202.534C130.559 202.458 130.515 202.277 130.479 202.148L130.408 201.9C130.376 201.789 130.344 201.678 130.308 201.568C130.249 201.368 130.185 201.173 130.121 200.974C130.058 200.775 129.99 200.58 129.922 200.385C129.787 199.986 129.64 199.592 129.493 199.197C128.916 197.664 128.268 196.154 127.671 194.656C127.35 193.871 127.066 193.068 126.82 192.25L126.744 192.37C126.623 192.574 126.515 192.787 126.422 193.008C126.422 196.495 123.287 200.761 123.287 200.761L120.132 195.644L117.372 200.371C116.974 200.606 116.576 201.413 116.266 202.56C116.178 202.87 116.095 203.207 116.015 203.566C115.959 203.805 115.908 204.058 115.86 204.31C115.832 204.439 115.808 204.567 115.784 204.7L115.713 205.103V205.165C115.665 205.44 115.617 205.724 115.574 206.011C115.53 206.299 115.478 206.632 115.434 206.946C115.403 207.15 115.375 207.354 115.351 207.558C115.295 207.952 115.247 208.351 115.2 208.745C115.172 208.976 115.144 209.188 115.12 209.432L115.025 210.318C115.228 211.045 115.454 211.762 115.689 212.467C115.839 212.853 115.926 213.265 115.948 213.685C120.829 215.239 126.004 215.239 130.885 213.685C130.883 213.67 130.883 213.656 130.885 213.641C130.812 213.243 130.78 212.837 130.79 212.431C130.87 211.295 131.003 210.163 131.187 209.042C131.246 208.489 131.271 207.933 131.263 207.376V207.177C131.251 207.008 131.247 206.849 131.243 206.689ZM131.243 206.689C131.243 206.512 131.243 206.335 131.215 206.158C131.187 205.98 131.191 205.825 131.172 205.657C131.152 205.489 131.136 205.32 131.116 205.152C131.096 204.984 131.068 204.815 131.04 204.647C131.012 204.479 130.985 204.31 130.953 204.142C130.953 204.084 130.933 204.031 130.921 203.973C130.877 203.752 130.829 203.53 130.778 203.304C130.726 203.078 130.694 202.946 130.646 202.768C130.646 202.689 130.607 202.609 130.583 202.534C130.559 202.458 130.515 202.277 130.479 202.148L130.408 201.9C130.376 201.789 130.344 201.678 130.308 201.568C130.249 201.368 130.185 201.173 130.121 200.974C130.058 200.775 129.99 200.58 129.922 200.385C129.787 199.986 129.64 199.592 129.493 199.197C128.916 197.664 128.268 196.154 127.671 194.656C127.35 193.871 127.066 193.068 126.82 192.25L126.744 192.37C126.623 192.574 126.515 192.787 126.422 193.008C126.422 196.495 123.287 200.761 123.287 200.761L120.132 195.644L117.372 200.371C116.974 200.606 116.576 201.413 116.266 202.56C116.178 202.87 116.095 203.207 116.015 203.566C115.959 203.805 115.908 204.058 115.86 204.31C115.832 204.439 115.808 204.567 115.784 204.7L115.713 205.103V205.165C115.665 205.44 115.617 205.724 115.574 206.011C115.53 206.299 115.478 206.632 115.434 206.946C115.403 207.15 115.375 207.354 115.351 207.558C115.295 207.952 115.247 208.351 115.2 208.745C115.172 208.976 115.144 209.188 115.12 209.432L115.025 210.318C115.228 211.045 115.454 211.762 115.689 212.467C115.839 212.853 115.926 213.265 115.948 213.685C120.829 215.239 126.004 215.239 130.885 213.685C130.883 213.67 130.883 213.656 130.885 213.641C130.812 213.243 130.78 212.837 130.79 212.431C130.87 211.295 131.003 210.163 131.187 209.042C131.246 208.489 131.271 207.933 131.263 207.376V207.177C131.251 207.008 131.247 206.849 131.243 206.689ZM131.243 206.689C131.243 206.512 131.243 206.335 131.215 206.158C131.187 205.98 131.191 205.825 131.172 205.657C131.152 205.489 131.136 205.32 131.116 205.152C131.096 204.984 131.068 204.815 131.04 204.647C131.012 204.479 130.985 204.31 130.953 204.142C130.953 204.084 130.933 204.031 130.921 203.973C130.877 203.752 130.829 203.53 130.778 203.304C130.726 203.078 130.694 202.946 130.646 202.768C130.646 202.689 130.607 202.609 130.583 202.534C130.559 202.458 130.515 202.277 130.479 202.148L130.408 201.9C130.376 201.789 130.344 201.678 130.308 201.568C130.249 201.368 130.185 201.173 130.121 200.974C130.058 200.775 129.99 200.58 129.922 200.385C129.787 199.986 129.64 199.592 129.493 199.197C128.916 197.664 128.268 196.154 127.671 194.656C127.35 193.871 127.066 193.068 126.82 192.25L126.744 192.37C126.623 192.574 126.515 192.787 126.422 193.008C126.422 196.495 123.287 200.761 123.287 200.761L120.132 195.644L117.372 200.371C116.974 200.606 116.576 201.413 116.266 202.56C116.178 202.87 116.095 203.207 116.015 203.566C115.959 203.805 115.908 204.058 115.86 204.31C115.832 204.439 115.808 204.567 115.784 204.7L115.713 205.103V205.165C115.665 205.44 115.617 205.724 115.574 206.011C115.53 206.299 115.478 206.632 115.434 206.946C115.403 207.15 115.375 207.354 115.351 207.558C115.295 207.952 115.247 208.351 115.2 208.745C115.172 208.976 115.144 209.188 115.12 209.432L115.025 210.318C115.228 211.045 115.454 211.762 115.689 212.467C115.839 212.853 115.926 213.265 115.948 213.685C120.829 215.239 126.004 215.239 130.885 213.685C130.883 213.67 130.883 213.656 130.885 213.641C130.812 213.243 130.78 212.837 130.79 212.431C130.87 211.295 131.003 210.163 131.187 209.042C131.246 208.489 131.271 207.933 131.263 207.376V207.177C131.251 207.008 131.247 206.849 131.243 206.689ZM131.243 206.689C131.243 206.512 131.243 206.335 131.215 206.158C131.187 205.98 131.191 205.825 131.172 205.657C131.152 205.489 131.136 205.32 131.116 205.152C131.096 204.984 131.068 204.815 131.04 204.647C131.012 204.479 130.985 204.31 130.953 204.142C130.953 204.084 130.933 204.031 130.921 203.973C130.877 203.752 130.829 203.53 130.778 203.304C130.726 203.078 130.694 202.946 130.646 202.768C130.646 202.689 130.607 202.609 130.583 202.534C130.559 202.458 130.515 202.277 130.479 202.148L130.408 201.9C130.376 201.789 130.344 201.678 130.308 201.568C130.249 201.368 130.185 201.173 130.121 200.974C130.058 200.775 129.99 200.58 129.922 200.385C129.787 199.986 129.64 199.592 129.493 199.197C128.916 197.664 128.268 196.154 127.671 194.656C127.35 193.871 127.066 193.068 126.82 192.25L126.744 192.37C126.623 192.574 126.515 192.787 126.422 193.008C126.422 196.495 123.287 200.761 123.287 200.761L120.132 195.644L117.372 200.371C116.974 200.606 116.576 201.413 116.266 202.56C116.178 202.87 116.095 203.207 116.015 203.566C115.959 203.805 115.908 204.058 115.86 204.31C115.832 204.439 115.808 204.567 115.784 204.7L115.713 205.103V205.165C115.665 205.44 115.617 205.724 115.574 206.011C115.53 206.299 115.478 206.632 115.434 206.946C115.403 207.15 115.375 207.354 115.351 207.558C115.295 207.952 115.247 208.351 115.2 208.745C115.172 208.976 115.144 209.188 115.12 209.432L115.025 210.318C115.228 211.045 115.454 211.762 115.689 212.467C115.839 212.853 115.926 213.265 115.948 213.685C120.829 215.239 126.004 215.239 130.885 213.685C130.883 213.67 130.883 213.656 130.885 213.641C130.812 213.243 130.78 212.837 130.79 212.431C130.87 211.295 131.003 210.163 131.187 209.042C131.246 208.489 131.271 207.933 131.263 207.376V207.177C131.251 207.008 131.247 206.849 131.243 206.689ZM131.243 206.689C131.243 206.512 131.243 206.335 131.215 206.158C131.187 205.98 131.191 205.825 131.172 205.657C131.152 205.489 131.136 205.32 131.116 205.152C131.096 204.984 131.068 204.815 131.04 204.647C131.012 204.479 130.985 204.31 130.953 204.142C130.953 204.084 130.933 204.031 130.921 203.973C130.877 203.752 130.829 203.53 130.778 203.304C130.726 203.078 130.694 202.946 130.646 202.768C130.646 202.689 130.607 202.609 130.583 202.534C130.559 202.458 130.515 202.277 130.479 202.148L130.408 201.9C130.376 201.789 130.344 201.678 130.308 201.568C130.249 201.368 130.185 201.173 130.121 200.974C130.058 200.775 129.99 200.58 129.922 200.385C129.787 199.986 129.64 199.592 129.493 199.197C128.916 197.664 128.268 196.154 127.671 194.656C127.35 193.871 127.066 193.068 126.82 192.25L126.744 192.37C126.623 192.574 126.515 192.787 126.422 193.008C126.422 196.495 123.287 200.761 123.287 200.761L120.132 195.644L117.372 200.371C116.974 200.606 116.576 201.413 116.266 202.56C116.178 202.87 116.095 203.207 116.015 203.566C115.959 203.805 115.908 204.058 115.86 204.31C115.832 204.439 115.808 204.567 115.784 204.7L115.713 205.103V205.165C115.665 205.44 115.617 205.724 115.574 206.011C115.53 206.299 115.478 206.632 115.434 206.946C115.403 207.15 115.375 207.354 115.351 207.558C115.295 207.952 115.247 208.351 115.2 208.745C115.172 208.976 115.144 209.188 115.12 209.432L115.025 210.318C115.228 211.045 115.454 211.762 115.689 212.467C115.839 212.853 115.926 213.265 115.948 213.685C120.829 215.239 126.004 215.239 130.885 213.685C130.883 213.67 130.883 213.656 130.885 213.641C130.812 213.243 130.78 212.837 130.79 212.431C130.87 211.295 131.003 210.163 131.187 209.042C131.246 208.489 131.271 207.933 131.263 207.376V207.177C131.251 207.008 131.247 206.849 131.243 206.689ZM131.243 206.689C131.243 206.512 131.243 206.335 131.215 206.158C131.187 205.98 131.191 205.825 131.172 205.657C131.152 205.489 131.136 205.32 131.116 205.152C131.096 204.984 131.068 204.815 131.04 204.647C131.012 204.479 130.985 204.31 130.953 204.142C130.953 204.084 130.933 204.031 130.921 203.973C130.877 203.752 130.829 203.53 130.778 203.304C130.726 203.078 130.694 202.946 130.646 202.768C130.646 202.689 130.607 202.609 130.583 202.534C130.559 202.458 130.515 202.277 130.479 202.148L130.408 201.9C130.376 201.789 130.344 201.678 130.308 201.568C130.249 201.368 130.185 201.173 130.121 200.974C130.058 200.775 129.99 200.58 129.922 200.385C129.787 199.986 129.64 199.592 129.493 199.197C128.916 197.664 128.268 196.154 127.671 194.656C127.35 193.871 127.066 193.068 126.82 192.25L126.744 192.37C126.623 192.574 126.515 192.787 126.422 193.008C126.422 196.495 123.287 200.761 123.287 200.761L120.132 195.644L117.372 200.371C116.974 200.606 116.576 201.413 116.266 202.56C116.178 202.87 116.095 203.207 116.015 203.566C115.959 203.805 115.908 204.058 115.86 204.31C115.832 204.439 115.808 204.567 115.784 204.7L115.713 205.103V205.165C115.665 205.44 115.617 205.724 115.574 206.011C115.53 206.299 115.478 206.632 115.434 206.946C115.403 207.15 115.375 207.354 115.351 207.558C115.295 207.952 115.247 208.351 115.2 208.745C115.172 208.976 115.144 209.188 115.12 209.432L115.025 210.318C115.228 211.045 115.454 211.762 115.689 212.467C115.839 212.853 115.926 213.265 115.948 213.685C120.829 215.239 126.004 215.239 130.885 213.685C130.883 213.67 130.883 213.656 130.885 213.641C130.812 213.243 130.78 212.837 130.79 212.431C130.87 211.295 131.003 210.163 131.187 209.042C131.246 208.489 131.271 207.933 131.263 207.376V207.177C131.251 207.008 131.247 206.849 131.243 206.689Z" fill="white"/>
<path opacity="0.1" d="M120.188 195.347L119.922 195.307C119.519 195.247 119.121 195.158 118.728 195.041L118.581 194.997C117.61 194.691 116.548 194.142 116.31 193.176C116.238 192.865 116.247 192.538 116.333 192.232C116.467 191.705 116.648 191.195 116.874 190.708V190.682C116.904 190.613 116.938 190.547 116.974 190.482C117.302 189.768 117.798 189.166 118.41 188.741L117.933 188.825L113.891 189.556L107.625 190.682C107.625 190.682 106.512 190.434 104.996 195.086C104.996 195.143 104.96 195.197 104.944 195.259C104.578 196.397 104.192 197.819 103.795 199.596C103.52 200.828 103.269 202.037 103.039 203.211C102.971 203.566 102.903 203.916 102.84 204.261C103.557 205.203 104.329 206.091 105.151 206.92L105.282 207.057C106.892 208.681 108.671 210.083 110.581 211.235L110.657 211.279C111.858 212.001 113.108 212.617 114.396 213.123L114.734 213.255C114.806 212.436 114.885 211.528 114.981 210.597C114.981 210.504 114.981 210.411 115.013 210.318L115.108 209.432C115.132 209.206 115.16 208.989 115.188 208.745C115.235 208.351 115.283 207.952 115.339 207.558C115.363 207.354 115.391 207.15 115.422 206.946C115.466 206.632 115.514 206.317 115.562 206.011C115.609 205.706 115.653 205.44 115.701 205.165V205.103L115.773 204.7C115.796 204.567 115.82 204.439 115.848 204.31C115.896 204.058 115.948 203.805 116.003 203.566C116.083 203.207 116.166 202.87 116.254 202.56C116.572 201.413 116.942 200.606 117.36 200.371L120.121 195.644L120.236 195.445L120.288 195.356L120.188 195.347Z" fill="black"/>
<path opacity="0.1" d="M115.165 163.966C114.767 164.577 114.799 165.419 114.62 166.181C114.194 167.913 112.507 168.999 112.121 170.744C111.895 171.763 112.157 172.844 112.002 173.881C111.72 175.791 110.152 177.084 109.277 178.755C108.834 179.615 108.57 180.576 108.508 181.566C108.445 182.556 108.584 183.549 108.915 184.47C109.12 184.935 109.289 185.418 109.42 185.915C109.521 186.654 109.479 187.409 109.297 188.13C108.999 189.707 108.692 191.444 109.377 192.866C109.953 194.067 111.151 194.771 112.356 194.993C113.573 195.146 114.805 195.083 116.004 194.807C117.321 194.581 118.669 194.319 119.815 193.566L115.507 181.985C115.073 180.815 114.628 179.605 114.632 178.338C114.667 177.404 114.848 176.483 115.169 175.618C116.003 173.112 117.213 170.782 118.749 168.728C119.373 169.535 119.326 170.762 119.847 171.657C120.307 172.319 120.921 172.829 121.621 173.132C123.662 174.241 125.76 175.218 127.902 176.057C128.037 176.075 128.165 176.131 128.276 176.218C128.386 176.305 128.476 176.421 128.536 176.556C128.597 176.691 128.627 176.841 128.623 176.992C128.619 177.143 128.582 177.29 128.515 177.421L126.892 184.882C126.534 186.526 126.22 188.427 127.139 189.756C128.058 191.085 130.13 191.714 130.142 193.429C130.125 193.7 130.125 193.973 130.142 194.244C130.249 195.046 131.105 195.431 131.833 195.471C133.028 195.497 134.192 195.05 135.118 194.208C136.045 193.367 136.672 192.186 136.889 190.877C137.287 187.944 135.544 185.241 134.816 182.383C133.591 177.576 135.214 171.936 132.807 167.714C130.858 164.289 127.306 163.359 123.932 162.933C121.565 162.623 116.832 161.516 115.165 163.966Z" fill="black"/>
<path opacity="0.5" d="M115.165 163.523C114.767 164.134 114.799 164.976 114.62 165.738C114.194 167.47 112.507 168.556 112.121 170.301C111.895 171.32 112.157 172.401 112.002 173.438C111.72 175.348 110.152 176.641 109.277 178.312C108.834 179.172 108.57 180.133 108.508 181.123C108.445 182.113 108.584 183.106 108.915 184.027C109.12 184.492 109.289 184.975 109.42 185.472C109.521 186.211 109.479 186.966 109.297 187.687C108.999 189.264 108.692 191.001 109.377 192.423C109.953 193.624 111.151 194.328 112.356 194.55C113.573 194.703 114.805 194.64 116.004 194.364C117.321 194.138 118.669 193.876 119.815 193.123L115.507 181.542C115.073 180.372 114.628 179.162 114.632 177.895C114.667 176.961 114.848 176.04 115.169 175.175C116.003 172.669 117.213 170.339 118.749 168.285C119.373 169.092 119.326 170.319 119.847 171.214C120.307 171.876 120.921 172.386 121.621 172.689C123.662 173.798 125.76 174.775 127.902 175.614C128.037 175.632 128.165 175.688 128.276 175.775C128.386 175.862 128.476 175.978 128.536 176.113C128.597 176.248 128.627 176.398 128.623 176.549C128.619 176.7 128.582 176.847 128.515 176.978L126.892 184.439C126.534 186.083 126.22 187.984 127.139 189.313C128.058 190.642 130.13 191.271 130.142 192.986C130.125 193.257 130.125 193.53 130.142 193.801C130.249 194.603 131.105 194.988 131.833 195.028C133.028 195.054 134.192 194.607 135.118 193.765C136.045 192.924 136.672 191.743 136.889 190.434C137.287 187.501 135.544 184.798 134.816 181.94C133.591 177.133 135.214 171.493 132.807 167.271C130.858 163.846 127.306 162.916 123.932 162.49C121.565 162.18 116.832 161.072 115.165 163.523Z" fill="#493545"/>
</g>
<g opacity="0.5">
<path opacity="0.5" d="M112.717 282.195C112.753 283.679 111.846 284.946 111.126 286.182C110.406 287.418 109.873 289.106 110.613 290.342C110.855 290.75 111.221 291.065 111.44 291.49C112.208 292.974 110.931 294.68 110.466 296.31C109.929 298.193 110.553 300.298 111.683 301.826C112.813 303.355 114.372 304.387 115.947 305.296C119.26 307.261 122.815 308.671 126.497 309.478C128.423 309.872 130.475 310.05 132.281 309.19C133.534 308.55 134.558 307.459 135.188 306.093C135.818 304.727 136.017 303.165 135.754 301.658C135.297 299.328 133.765 297.453 132.969 295.252C132.784 294.819 132.694 294.344 132.707 293.865C132.775 293.027 133.351 292.372 133.801 291.694C134.928 289.848 135.388 287.596 135.09 285.389C134.776 283.182 134.017 281.082 132.87 279.248C132.46 278.488 131.919 277.826 131.279 277.299C130.412 276.648 129.337 276.462 128.303 276.298C123.983 275.624 119.508 274.889 115.152 274.641C113.775 274.561 112.765 274.862 112.085 276.298C111.046 278.438 112.665 280.046 112.717 282.195Z" fill="#444176"/>
<path opacity="0.5" d="M134.967 297.263L126.769 310.249L118.765 309.473C118.765 309.473 118.502 312.575 115.284 301.335C113.486 295.048 117.142 297.232 117.862 295.491C118.582 293.749 119.851 292.212 119.958 290.927C120.213 288.171 119.461 286.603 119.461 286.603L128.161 285.442C127.768 286.748 127.719 288.151 128.018 289.487C129.108 294.529 134.967 297.263 134.967 297.263Z" fill="#C77485"/>
<path opacity="0.5" d="M122.635 286.191C128.347 286.191 132.978 282.125 132.978 277.108C132.978 272.092 128.347 268.026 122.635 268.026C116.923 268.026 112.292 272.092 112.292 277.108C112.292 282.125 116.923 286.191 122.635 286.191Z" fill="#444176"/>
<path opacity="0.1" d="M128.013 289.483C126.878 290.44 125.55 291.072 124.145 291.324C122.74 291.576 121.3 291.44 119.953 290.927C120.208 288.171 119.456 286.603 119.456 286.603L128.156 285.442C127.764 286.747 127.715 288.148 128.013 289.483Z" fill="black"/>
<path opacity="0.5" d="M122.766 291.06C127.571 291.06 131.466 286.722 131.466 281.371C131.466 276.019 127.571 271.681 122.766 271.681C117.962 271.681 114.066 276.019 114.066 281.371C114.066 286.722 117.962 291.06 122.766 291.06Z" fill="#C77485"/>
<path opacity="0.1" d="M134.108 298.734L133.905 297.848L133.73 297.068L133.471 295.916L133.424 295.703L133.384 295.526C133.384 295.526 133.591 294.831 132.226 295.057L131.972 295.105C131.757 295.154 131.506 295.22 131.22 295.309L130.961 295.398L130.619 295.517C129.536 295.91 128.548 296.574 127.731 297.458C127.364 297.849 127.04 298.286 126.764 298.76C126.737 298.805 126.717 298.845 126.693 298.88C126.599 299.045 126.515 299.216 126.442 299.394C126.442 302.885 123.308 307.147 123.308 307.147L120.248 302.225L120.189 302.128L119.461 300.949L119.202 300.568L119.115 300.435L117.523 298.056L117.126 297.462L116.994 297.263L116.799 296.975L116.342 296.297L114.552 297.462L112.165 299.013L110.773 309.092V309.372L110.816 310.205L111.107 315.681V315.756L110.598 318.024L110.673 318.069C111.875 318.791 113.125 319.407 114.413 319.912L114.751 320.045C115.149 320.191 115.522 320.324 115.912 320.452C115.927 320.518 115.937 320.585 115.944 320.652C115.944 320.59 115.944 320.523 115.944 320.461C120.826 322.015 126 322.015 130.882 320.461L130.973 320.43C131.2 320.359 131.431 320.284 131.653 320.2L132.015 320.071C132.997 319.706 133.959 319.277 134.896 318.786L135.23 310.856L135.468 305.136V304.808L134.108 298.734Z" fill="black"/>
<path opacity="0.5" d="M131.243 313.465C131.243 313.288 131.243 313.111 131.215 312.934C131.187 312.757 131.191 312.601 131.172 312.433C131.152 312.265 131.136 312.096 131.116 311.928C131.096 311.76 131.068 311.591 131.04 311.423C131.012 311.255 130.985 311.086 130.953 310.918C130.953 310.86 130.933 310.807 130.921 310.749C130.877 310.528 130.829 310.306 130.778 310.08C130.726 309.855 130.694 309.722 130.646 309.544C130.646 309.465 130.607 309.385 130.583 309.31C130.559 309.234 130.515 309.053 130.479 308.924L130.408 308.676C130.376 308.565 130.344 308.454 130.308 308.344C130.249 308.144 130.185 307.949 130.121 307.75C130.058 307.551 129.99 307.356 129.922 307.161C129.787 306.762 129.64 306.368 129.493 305.973C128.916 304.44 128.268 302.93 127.671 301.432C127.35 300.647 127.066 299.844 126.82 299.026L126.744 299.146C126.623 299.35 126.515 299.563 126.422 299.784C126.422 303.271 123.287 307.537 123.287 307.537L120.132 302.42L117.372 307.147C116.974 307.382 116.576 308.189 116.266 309.336C116.178 309.646 116.095 309.983 116.015 310.342C115.959 310.581 115.908 310.834 115.86 311.086C115.832 311.215 115.808 311.343 115.784 311.476L115.713 311.879V311.941C115.665 312.216 115.617 312.5 115.574 312.788C115.53 313.076 115.478 313.408 115.434 313.722C115.403 313.926 115.375 314.13 115.351 314.334C115.295 314.728 115.247 315.127 115.2 315.521C115.172 315.752 115.144 315.964 115.12 316.208L115.025 317.094C115.228 317.821 115.454 318.538 115.689 319.243C115.839 319.629 115.926 320.041 115.948 320.461C120.829 322.015 126.004 322.015 130.885 320.461C130.883 320.447 130.883 320.432 130.885 320.417C130.812 320.019 130.78 319.613 130.79 319.207C130.87 318.071 131.003 316.939 131.187 315.818C131.246 315.265 131.271 314.709 131.263 314.152V313.953C131.251 313.784 131.247 313.625 131.243 313.465ZM131.243 313.465C131.243 313.288 131.243 313.111 131.215 312.934C131.187 312.757 131.191 312.601 131.172 312.433C131.152 312.265 131.136 312.096 131.116 311.928C131.096 311.76 131.068 311.591 131.04 311.423C131.012 311.255 130.985 311.086 130.953 310.918C130.953 310.86 130.933 310.807 130.921 310.749C130.877 310.528 130.829 310.306 130.778 310.08C130.726 309.855 130.694 309.722 130.646 309.544C130.646 309.465 130.607 309.385 130.583 309.31C130.559 309.234 130.515 309.053 130.479 308.924L130.408 308.676C130.376 308.565 130.344 308.454 130.308 308.344C130.249 308.144 130.185 307.949 130.121 307.75C130.058 307.551 129.99 307.356 129.922 307.161C129.787 306.762 129.64 306.368 129.493 305.973C128.916 304.44 128.268 302.93 127.671 301.432C127.35 300.647 127.066 299.844 126.82 299.026L126.744 299.146C126.623 299.35 126.515 299.563 126.422 299.784C126.422 303.271 123.287 307.537 123.287 307.537L120.132 302.42L117.372 307.147C116.974 307.382 116.576 308.189 116.266 309.336C116.178 309.646 116.095 309.983 116.015 310.342C115.959 310.581 115.908 310.834 115.86 311.086C115.832 311.215 115.808 311.343 115.784 311.476L115.713 311.879V311.941C115.665 312.216 115.617 312.5 115.574 312.788C115.53 313.076 115.478 313.408 115.434 313.722C115.403 313.926 115.375 314.13 115.351 314.334C115.295 314.728 115.247 315.127 115.2 315.521C115.172 315.752 115.144 315.964 115.12 316.208L115.025 317.094C115.228 317.821 115.454 318.538 115.689 319.243C115.839 319.629 115.926 320.041 115.948 320.461C120.829 322.015 126.004 322.015 130.885 320.461C130.883 320.447 130.883 320.432 130.885 320.417C130.812 320.019 130.78 319.613 130.79 319.207C130.87 318.071 131.003 316.939 131.187 315.818C131.246 315.265 131.271 314.709 131.263 314.152V313.953C131.251 313.784 131.247 313.625 131.243 313.465ZM131.243 313.465C131.243 313.288 131.243 313.111 131.215 312.934C131.187 312.757 131.191 312.601 131.172 312.433C131.152 312.265 131.136 312.096 131.116 311.928C131.096 311.76 131.068 311.591 131.04 311.423C131.012 311.255 130.985 311.086 130.953 310.918C130.953 310.86 130.933 310.807 130.921 310.749C130.877 310.528 130.829 310.306 130.778 310.08C130.726 309.855 130.694 309.722 130.646 309.544C130.646 309.465 130.607 309.385 130.583 309.31C130.559 309.234 130.515 309.053 130.479 308.924L130.408 308.676C130.376 308.565 130.344 308.454 130.308 308.344C130.249 308.144 130.185 307.949 130.121 307.75C130.058 307.551 129.99 307.356 129.922 307.161C129.787 306.762 129.64 306.368 129.493 305.973C128.916 304.44 128.268 302.93 127.671 301.432C127.35 300.647 127.066 299.844 126.82 299.026L126.744 299.146C126.623 299.35 126.515 299.563 126.422 299.784C126.422 303.271 123.287 307.537 123.287 307.537L120.132 302.42L117.372 307.147C116.974 307.382 116.576 308.189 116.266 309.336C116.178 309.646 116.095 309.983 116.015 310.342C115.959 310.581 115.908 310.834 115.86 311.086C115.832 311.215 115.808 311.343 115.784 311.476L115.713 311.879V311.941C115.665 312.216 115.617 312.5 115.574 312.788C115.53 313.076 115.478 313.408 115.434 313.722C115.403 313.926 115.375 314.13 115.351 314.334C115.295 314.728 115.247 315.127 115.2 315.521C115.172 315.752 115.144 315.964 115.12 316.208L115.025 317.094C115.228 317.821 115.454 318.538 115.689 319.243C115.839 319.629 115.926 320.041 115.948 320.461C120.829 322.015 126.004 322.015 130.885 320.461C130.883 320.447 130.883 320.432 130.885 320.417C130.812 320.019 130.78 319.613 130.79 319.207C130.87 318.071 131.003 316.939 131.187 315.818C131.246 315.265 131.271 314.709 131.263 314.152V313.953C131.251 313.784 131.247 313.625 131.243 313.465ZM135.46 305.149L134.04 298.836L133.797 297.755L133.729 297.458L133.383 295.916C133.384 295.903 133.384 295.889 133.383 295.876C133.392 295.808 133.382 295.739 133.356 295.677C133.304 295.562 133.173 295.442 132.866 295.411C132.75 295.402 132.633 295.402 132.516 295.411C132.171 295.449 131.828 295.52 131.494 295.624C131.331 295.672 131.156 295.726 130.969 295.792L130.627 295.912H130.595C129.678 296.246 128.828 296.773 128.089 297.462C127.6 297.916 127.172 298.444 126.816 299.031L126.74 299.15C126.619 299.354 126.511 299.567 126.418 299.788C126.418 303.275 123.283 307.542 123.283 307.542L120.128 302.425L119.949 302.137L119.918 302.088L119.46 301.339L119.114 300.825L119.023 300.692L117.392 298.269L116.874 297.484V297.458L116.695 297.188L116.353 296.683L115.16 297.458L112.176 299.394L110.8 309.367V309.473L110.84 310.2L111.134 315.752V316.066L110.685 318.064C111.886 318.786 113.136 319.402 114.424 319.907L114.762 320.04C115.16 320.187 115.534 320.319 115.924 320.448C115.938 320.514 115.949 320.58 115.955 320.647C115.955 320.585 115.955 320.519 115.955 320.457C120.837 322.01 126.012 322.01 130.893 320.457L130.985 320.426C131.211 320.355 131.442 320.28 131.665 320.195L132.027 320.067C133.008 319.701 133.97 319.272 134.907 318.782L135.237 310.86L135.476 305.202L135.46 305.149ZM115.896 320.448C115.91 320.514 115.921 320.58 115.928 320.647C115.928 320.585 115.928 320.519 115.928 320.457L115.896 320.448ZM131.243 313.465C131.243 313.288 131.243 313.111 131.215 312.934C131.187 312.757 131.191 312.601 131.172 312.433C131.152 312.265 131.136 312.096 131.116 311.928C131.096 311.76 131.068 311.591 131.04 311.423C131.012 311.255 130.985 311.086 130.953 310.918C130.953 310.86 130.933 310.807 130.921 310.749C130.877 310.528 130.829 310.306 130.778 310.08C130.726 309.855 130.694 309.722 130.646 309.544C130.646 309.465 130.607 309.385 130.583 309.31C130.559 309.234 130.515 309.053 130.479 308.924L130.408 308.676C130.376 308.565 130.344 308.454 130.308 308.344C130.249 308.144 130.185 307.949 130.121 307.75C130.058 307.551 129.99 307.356 129.922 307.161C129.787 306.762 129.64 306.368 129.493 305.973C128.916 304.44 128.268 302.93 127.671 301.432C127.35 300.647 127.066 299.844 126.82 299.026L126.744 299.146C126.623 299.35 126.515 299.563 126.422 299.784C126.422 303.271 123.287 307.537 123.287 307.537L120.132 302.42L117.372 307.147C116.974 307.382 116.576 308.189 116.266 309.336C116.178 309.646 116.095 309.983 116.015 310.342C115.959 310.581 115.908 310.834 115.86 311.086C115.832 311.215 115.808 311.343 115.784 311.476L115.713 311.879V311.941C115.665 312.216 115.617 312.5 115.574 312.788C115.53 313.076 115.478 313.408 115.434 313.722C115.403 313.926 115.375 314.13 115.351 314.334C115.295 314.728 115.247 315.127 115.2 315.521C115.172 315.752 115.144 315.964 115.12 316.208L115.025 317.094C115.228 317.821 115.454 318.538 115.689 319.243C115.839 319.629 115.926 320.041 115.948 320.461C120.829 322.015 126.004 322.015 130.885 320.461C130.883 320.447 130.883 320.432 130.885 320.417C130.812 320.019 130.78 319.613 130.79 319.207C130.87 318.071 131.003 316.939 131.187 315.818C131.246 315.265 131.271 314.709 131.263 314.152V313.953C131.251 313.784 131.247 313.625 131.243 313.465ZM131.243 313.465C131.243 313.288 131.243 313.111 131.215 312.934C131.187 312.757 131.191 312.601 131.172 312.433C131.152 312.265 131.136 312.096 131.116 311.928C131.096 311.76 131.068 311.591 131.04 311.423C131.012 311.255 130.985 311.086 130.953 310.918C130.953 310.86 130.933 310.807 130.921 310.749C130.877 310.528 130.829 310.306 130.778 310.08C130.726 309.855 130.694 309.722 130.646 309.544C130.646 309.465 130.607 309.385 130.583 309.31C130.559 309.234 130.515 309.053 130.479 308.924L130.408 308.676C130.376 308.565 130.344 308.454 130.308 308.344C130.249 308.144 130.185 307.949 130.121 307.75C130.058 307.551 129.99 307.356 129.922 307.161C129.787 306.762 129.64 306.368 129.493 305.973C128.916 304.44 128.268 302.93 127.671 301.432C127.35 300.647 127.066 299.844 126.82 299.026L126.744 299.146C126.623 299.35 126.515 299.563 126.422 299.784C126.422 303.271 123.287 307.537 123.287 307.537L120.132 302.42L117.372 307.147C116.974 307.382 116.576 308.189 116.266 309.336C116.178 309.646 116.095 309.983 116.015 310.342C115.959 310.581 115.908 310.834 115.86 311.086C115.832 311.215 115.808 311.343 115.784 311.476L115.713 311.879V311.941C115.665 312.216 115.617 312.5 115.574 312.788C115.53 313.076 115.478 313.408 115.434 313.722C115.403 313.926 115.375 314.13 115.351 314.334C115.295 314.728 115.247 315.127 115.2 315.521C115.172 315.752 115.144 315.964 115.12 316.208L115.025 317.094C115.228 317.821 115.454 318.538 115.689 319.243C115.839 319.629 115.926 320.041 115.948 320.461C120.829 322.015 126.004 322.015 130.885 320.461C130.883 320.447 130.883 320.432 130.885 320.417C130.812 320.019 130.78 319.613 130.79 319.207C130.87 318.071 131.003 316.939 131.187 315.818C131.246 315.265 131.271 314.709 131.263 314.152V313.953C131.251 313.784 131.247 313.625 131.243 313.465ZM131.243 313.465C131.243 313.288 131.243 313.111 131.215 312.934C131.187 312.757 131.191 312.601 131.172 312.433C131.152 312.265 131.136 312.096 131.116 311.928C131.096 311.76 131.068 311.591 131.04 311.423C131.012 311.255 130.985 311.086 130.953 310.918C130.953 310.86 130.933 310.807 130.921 310.749C130.877 310.528 130.829 310.306 130.778 310.08C130.726 309.855 130.694 309.722 130.646 309.544C130.646 309.465 130.607 309.385 130.583 309.31C130.559 309.234 130.515 309.053 130.479 308.924L130.408 308.676C130.376 308.565 130.344 308.454 130.308 308.344C130.249 308.144 130.185 307.949 130.121 307.75C130.058 307.551 129.99 307.356 129.922 307.161C129.787 306.762 129.64 306.368 129.493 305.973C128.916 304.44 128.268 302.93 127.671 301.432C127.35 300.647 127.066 299.844 126.82 299.026L126.744 299.146C126.623 299.35 126.515 299.563 126.422 299.784C126.422 303.271 123.287 307.537 123.287 307.537L120.132 302.42L117.372 307.147C116.974 307.382 116.576 308.189 116.266 309.336C116.178 309.646 116.095 309.983 116.015 310.342C115.959 310.581 115.908 310.834 115.86 311.086C115.832 311.215 115.808 311.343 115.784 311.476L115.713 311.879V311.941C115.665 312.216 115.617 312.5 115.574 312.788C115.53 313.076 115.478 313.408 115.434 313.722C115.403 313.926 115.375 314.13 115.351 314.334C115.295 314.728 115.247 315.127 115.2 315.521C115.172 315.752 115.144 315.964 115.12 316.208L115.025 317.094C115.228 317.821 115.454 318.538 115.689 319.243C115.839 319.629 115.926 320.041 115.948 320.461C120.829 322.015 126.004 322.015 130.885 320.461C130.883 320.447 130.883 320.432 130.885 320.417C130.812 320.019 130.78 319.613 130.79 319.207C130.87 318.071 131.003 316.939 131.187 315.818C131.246 315.265 131.271 314.709 131.263 314.152V313.953C131.251 313.784 131.247 313.625 131.243 313.465ZM131.243 313.465C131.243 313.288 131.243 313.111 131.215 312.934C131.187 312.757 131.191 312.601 131.172 312.433C131.152 312.265 131.136 312.096 131.116 311.928C131.096 311.76 131.068 311.591 131.04 311.423C131.012 311.255 130.985 311.086 130.953 310.918C130.953 310.86 130.933 310.807 130.921 310.749C130.877 310.528 130.829 310.306 130.778 310.08C130.726 309.855 130.694 309.722 130.646 309.544C130.646 309.465 130.607 309.385 130.583 309.31C130.559 309.234 130.515 309.053 130.479 308.924L130.408 308.676C130.376 308.565 130.344 308.454 130.308 308.344C130.249 308.144 130.185 307.949 130.121 307.75C130.058 307.551 129.99 307.356 129.922 307.161C129.787 306.762 129.64 306.368 129.493 305.973C128.916 304.44 128.268 302.93 127.671 301.432C127.35 300.647 127.066 299.844 126.82 299.026L126.744 299.146C126.623 299.35 126.515 299.563 126.422 299.784C126.422 303.271 123.287 307.537 123.287 307.537L120.132 302.42L117.372 307.147C116.974 307.382 116.576 308.189 116.266 309.336C116.178 309.646 116.095 309.983 116.015 310.342C115.959 310.581 115.908 310.834 115.86 311.086C115.832 311.215 115.808 311.343 115.784 311.476L115.713 311.879V311.941C115.665 312.216 115.617 312.5 115.574 312.788C115.53 313.076 115.478 313.408 115.434 313.722C115.403 313.926 115.375 314.13 115.351 314.334C115.295 314.728 115.247 315.127 115.2 315.521C115.172 315.752 115.144 315.964 115.12 316.208L115.025 317.094C115.228 317.821 115.454 318.538 115.689 319.243C115.839 319.629 115.926 320.041 115.948 320.461C120.829 322.015 126.004 322.015 130.885 320.461C130.883 320.447 130.883 320.432 130.885 320.417C130.812 320.019 130.78 319.613 130.79 319.207C130.87 318.071 131.003 316.939 131.187 315.818C131.246 315.265 131.271 314.709 131.263 314.152V313.953C131.251 313.784 131.247 313.625 131.243 313.465ZM131.243 313.465C131.243 313.288 131.243 313.111 131.215 312.934C131.187 312.757 131.191 312.601 131.172 312.433C131.152 312.265 131.136 312.096 131.116 311.928C131.096 311.76 131.068 311.591 131.04 311.423C131.012 311.255 130.985 311.086 130.953 310.918C130.953 310.86 130.933 310.807 130.921 310.749C130.877 310.528 130.829 310.306 130.778 310.08C130.726 309.855 130.694 309.722 130.646 309.544C130.646 309.465 130.607 309.385 130.583 309.31C130.559 309.234 130.515 309.053 130.479 308.924L130.408 308.676C130.376 308.565 130.344 308.454 130.308 308.344C130.249 308.144 130.185 307.949 130.121 307.75C130.058 307.551 129.99 307.356 129.922 307.161C129.787 306.762 129.64 306.368 129.493 305.973C128.916 304.44 128.268 302.93 127.671 301.432C127.35 300.647 127.066 299.844 126.82 299.026L126.744 299.146C126.623 299.35 126.515 299.563 126.422 299.784C126.422 303.271 123.287 307.537 123.287 307.537L120.132 302.42L117.372 307.147C116.974 307.382 116.576 308.189 116.266 309.336C116.178 309.646 116.095 309.983 116.015 310.342C115.959 310.581 115.908 310.834 115.86 311.086C115.832 311.215 115.808 311.343 115.784 311.476L115.713 311.879V311.941C115.665 312.216 115.617 312.5 115.574 312.788C115.53 313.076 115.478 313.408 115.434 313.722C115.403 313.926 115.375 314.13 115.351 314.334C115.295 314.728 115.247 315.127 115.2 315.521C115.172 315.752 115.144 315.964 115.12 316.208L115.025 317.094C115.228 317.821 115.454 318.538 115.689 319.243C115.839 319.629 115.926 320.041 115.948 320.461C120.829 322.015 126.004 322.015 130.885 320.461C130.883 320.447 130.883 320.432 130.885 320.417C130.812 320.019 130.78 319.613 130.79 319.207C130.87 318.071 131.003 316.939 131.187 315.818C131.246 315.265 131.271 314.709 131.263 314.152V313.953C131.251 313.784 131.247 313.625 131.243 313.465ZM131.243 313.465C131.243 313.288 131.243 313.111 131.215 312.934C131.187 312.757 131.191 312.601 131.172 312.433C131.152 312.265 131.136 312.096 131.116 311.928C131.096 311.76 131.068 311.591 131.04 311.423C131.012 311.255 130.985 311.086 130.953 310.918C130.953 310.86 130.933 310.807 130.921 310.749C130.877 310.528 130.829 310.306 130.778 310.08C130.726 309.855 130.694 309.722 130.646 309.544C130.646 309.465 130.607 309.385 130.583 309.31C130.559 309.234 130.515 309.053 130.479 308.924L130.408 308.676C130.376 308.565 130.344 308.454 130.308 308.344C130.249 308.144 130.185 307.949 130.121 307.75C130.058 307.551 129.99 307.356 129.922 307.161C129.787 306.762 129.64 306.368 129.493 305.973C128.916 304.44 128.268 302.93 127.671 301.432C127.35 300.647 127.066 299.844 126.82 299.026L126.744 299.146C126.623 299.35 126.515 299.563 126.422 299.784C126.422 303.271 123.287 307.537 123.287 307.537L120.132 302.42L117.372 307.147C116.974 307.382 116.576 308.189 116.266 309.336C116.178 309.646 116.095 309.983 116.015 310.342C115.959 310.581 115.908 310.834 115.86 311.086C115.832 311.215 115.808 311.343 115.784 311.476L115.713 311.879V311.941C115.665 312.216 115.617 312.5 115.574 312.788C115.53 313.076 115.478 313.408 115.434 313.722C115.403 313.926 115.375 314.13 115.351 314.334C115.295 314.728 115.247 315.127 115.2 315.521C115.172 315.752 115.144 315.964 115.12 316.208L115.025 317.094C115.228 317.821 115.454 318.538 115.689 319.243C115.839 319.629 115.926 320.041 115.948 320.461C120.829 322.015 126.004 322.015 130.885 320.461C130.883 320.447 130.883 320.432 130.885 320.417C130.812 320.019 130.78 319.613 130.79 319.207C130.87 318.071 131.003 316.939 131.187 315.818C131.246 315.265 131.271 314.709 131.263 314.152V313.953C131.251 313.784 131.247 313.625 131.243 313.465ZM131.243 313.465C131.243 313.288 131.243 313.111 131.215 312.934C131.187 312.757 131.191 312.601 131.172 312.433C131.152 312.265 131.136 312.096 131.116 311.928C131.096 311.76 131.068 311.591 131.04 311.423C131.012 311.255 130.985 311.086 130.953 310.918C130.953 310.86 130.933 310.807 130.921 310.749C130.877 310.528 130.829 310.306 130.778 310.08C130.726 309.855 130.694 309.722 130.646 309.544C130.646 309.465 130.607 309.385 130.583 309.31C130.559 309.234 130.515 309.053 130.479 308.924L130.408 308.676C130.376 308.565 130.344 308.454 130.308 308.344C130.249 308.144 130.185 307.949 130.121 307.75C130.058 307.551 129.99 307.356 129.922 307.161C129.787 306.762 129.64 306.368 129.493 305.973C128.916 304.44 128.268 302.93 127.671 301.432C127.35 300.647 127.066 299.844 126.82 299.026L126.744 299.146C126.623 299.35 126.515 299.563 126.422 299.784C126.422 303.271 123.287 307.537 123.287 307.537L120.132 302.42L117.372 307.147C116.974 307.382 116.576 308.189 116.266 309.336C116.178 309.646 116.095 309.983 116.015 310.342C115.959 310.581 115.908 310.834 115.86 311.086C115.832 311.215 115.808 311.343 115.784 311.476L115.713 311.879V311.941C115.665 312.216 115.617 312.5 115.574 312.788C115.53 313.076 115.478 313.408 115.434 313.722C115.403 313.926 115.375 314.13 115.351 314.334C115.295 314.728 115.247 315.127 115.2 315.521C115.172 315.752 115.144 315.964 115.12 316.208L115.025 317.094C115.228 317.821 115.454 318.538 115.689 319.243C115.839 319.629 115.926 320.041 115.948 320.461C120.829 322.015 126.004 322.015 130.885 320.461C130.883 320.447 130.883 320.432 130.885 320.417C130.812 320.019 130.78 319.613 130.79 319.207C130.87 318.071 131.003 316.939 131.187 315.818C131.246 315.265 131.271 314.709 131.263 314.152V313.953C131.251 313.784 131.247 313.625 131.243 313.465ZM131.243 313.465C131.243 313.288 131.243 313.111 131.215 312.934C131.187 312.757 131.191 312.601 131.172 312.433C131.152 312.265 131.136 312.096 131.116 311.928C131.096 311.76 131.068 311.591 131.04 311.423C131.012 311.255 130.985 311.086 130.953 310.918C130.953 310.86 130.933 310.807 130.921 310.749C130.877 310.528 130.829 310.306 130.778 310.08C130.726 309.855 130.694 309.722 130.646 309.544C130.646 309.465 130.607 309.385 130.583 309.31C130.559 309.234 130.515 309.053 130.479 308.924L130.408 308.676C130.376 308.565 130.344 308.454 130.308 308.344C130.249 308.144 130.185 307.949 130.121 307.75C130.058 307.551 129.99 307.356 129.922 307.161C129.787 306.762 129.64 306.368 129.493 305.973C128.916 304.44 128.268 302.93 127.671 301.432C127.35 300.647 127.066 299.844 126.82 299.026L126.744 299.146C126.623 299.35 126.515 299.563 126.422 299.784C126.422 303.271 123.287 307.537 123.287 307.537L120.132 302.42L117.372 307.147C116.974 307.382 116.576 308.189 116.266 309.336C116.178 309.646 116.095 309.983 116.015 310.342C115.959 310.581 115.908 310.834 115.86 311.086C115.832 311.215 115.808 311.343 115.784 311.476L115.713 311.879V311.941C115.665 312.216 115.617 312.5 115.574 312.788C115.53 313.076 115.478 313.408 115.434 313.722C115.403 313.926 115.375 314.13 115.351 314.334C115.295 314.728 115.247 315.127 115.2 315.521C115.172 315.752 115.144 315.964 115.12 316.208L115.025 317.094C115.228 317.821 115.454 318.538 115.689 319.243C115.839 319.629 115.926 320.041 115.948 320.461C120.829 322.015 126.004 322.015 130.885 320.461C130.883 320.447 130.883 320.432 130.885 320.417C130.812 320.019 130.78 319.613 130.79 319.207C130.87 318.071 131.003 316.939 131.187 315.818C131.246 315.265 131.271 314.709 131.263 314.152V313.953C131.251 313.784 131.247 313.625 131.243 313.465Z" fill="#444176"/>
<path opacity="0.1" d="M120.188 302.123L119.922 302.083C119.519 302.023 119.121 301.934 118.728 301.818L118.581 301.773C117.61 301.468 116.548 300.918 116.31 299.952C116.238 299.641 116.247 299.315 116.333 299.009C116.467 298.481 116.648 297.971 116.874 297.484V297.458C116.904 297.389 116.938 297.323 116.974 297.258C117.302 296.544 117.799 295.942 118.41 295.517L117.933 295.601L113.891 296.333L107.625 297.458C107.625 297.458 106.512 297.21 104.996 301.862C104.996 301.919 104.96 301.973 104.944 302.035C104.578 303.173 104.192 304.595 103.795 306.372C103.52 307.604 103.269 308.813 103.039 309.987C102.971 310.342 102.903 310.692 102.84 311.038C103.557 311.979 104.329 312.867 105.151 313.696L105.282 313.833C106.892 315.457 108.671 316.86 110.581 318.011L110.657 318.056C111.858 318.777 113.108 319.394 114.396 319.899L114.734 320.032C114.806 319.212 114.885 318.304 114.981 317.373C114.981 317.28 114.981 317.187 115.013 317.094L115.108 316.208C115.132 315.982 115.16 315.765 115.188 315.521C115.235 315.127 115.283 314.728 115.339 314.334C115.363 314.13 115.391 313.926 115.422 313.722C115.466 313.408 115.514 313.093 115.562 312.788C115.609 312.482 115.653 312.216 115.701 311.941V311.879L115.773 311.476C115.796 311.343 115.82 311.215 115.848 311.086C115.896 310.834 115.948 310.581 116.003 310.342C116.083 309.983 116.166 309.646 116.254 309.336C116.572 308.189 116.942 307.382 117.36 307.147L120.121 302.42L120.236 302.221L120.288 302.132L120.188 302.123Z" fill="black"/>
<path opacity="0.1" d="M120.852 278.535C122.093 278.3 123.343 277.795 124.576 278.092C125.61 278.331 126.473 279.098 127.42 279.629C128.334 280.141 129.334 280.436 130.356 280.493C130.729 280.548 131.107 280.465 131.434 280.258C131.927 279.877 131.999 279.098 131.915 278.433C131.677 276.546 130.618 274.924 129.528 273.453C129.093 272.825 128.591 272.258 128.033 271.765C126.605 270.591 124.715 270.392 122.945 270.48C120.924 270.582 118.871 271.016 117.117 272.146C115.924 272.908 113.187 275.31 114.137 277.046C115.136 278.863 119.289 278.832 120.852 278.535Z" fill="black"/>
<path opacity="0.5" d="M120.852 278.092C122.093 277.857 123.343 277.352 124.576 277.649C125.61 277.888 126.473 278.655 127.42 279.186C128.334 279.698 129.334 279.993 130.356 280.05C130.729 280.105 131.107 280.022 131.434 279.815C131.927 279.434 131.999 278.655 131.915 277.99C131.677 276.103 130.618 274.481 129.528 273.01C129.093 272.382 128.591 271.815 128.033 271.322C126.605 270.148 124.715 269.949 122.945 270.037C120.924 270.139 118.871 270.573 117.117 271.703C115.924 272.465 113.187 274.867 114.137 276.603C115.136 278.42 119.289 278.389 120.852 278.092Z" fill="#444176"/>
</g>
<path d="M230.095 256.396H230.155C230.242 259.364 230.62 262.049 231.348 262.793C233.082 264.566 240.275 261.021 239.781 258.877C239.682 258.434 239.515 257.707 239.304 256.79C241.245 256.52 242.904 255.904 243.565 254.637L244.814 258.925L244.901 259.231H244.925H244.997C245.82 267.924 247.686 285.974 249.178 288.393C251.167 291.596 253.454 305.477 253.454 305.477L257.73 333.952C257.73 333.952 259.377 350.345 260.364 352.118C260.651 352.456 261.032 352.676 261.446 352.742C260.869 354.665 260.042 356.911 259.059 358.165C257.07 360.655 254.452 365.64 252.149 365.285C249.846 364.931 249.19 370.27 253.466 370.978C255.833 371.373 259.608 370.894 262.508 370.389C262.508 371.816 263.399 373.455 265.639 373.827C269.915 374.541 278.798 372.405 278.798 372.405C278.798 372.405 286.357 368.861 286.695 366.353C286.933 364.536 285.776 357.244 285.131 353.42C286.325 351.289 285.052 332.898 285.052 332.898L282.748 297.662C282.748 297.662 284.065 278.088 282.748 274.525C281.925 272.31 281.619 262.12 281.503 254.832L283.095 254.947C283.185 254.825 283.267 254.696 283.341 254.561L283.739 254.592C283.739 254.592 285.728 252.102 284.069 248.186C282.848 245.275 283.079 232.134 283.273 225.59L283.508 222.489C283.595 222.395 283.662 222.279 283.703 222.152C286.789 221.688 289.788 220.677 292.586 219.157C293.431 218.766 294.217 218.234 294.917 217.58C296.564 215.807 295.574 205.121 292.284 189.105C288.994 173.088 286.034 174.51 286.034 174.51C286.034 174.51 278.138 173.797 274.518 168.458C270.898 163.119 268.467 163.19 268.467 163.19C268.376 162.49 268.312 161.83 268.268 161.214C268.268 160.984 268.236 160.771 268.225 160.541C269.455 159.266 270.394 157.682 270.961 155.92C271.701 155.477 272.612 155.33 273.32 154.772C273.501 154.626 273.665 154.457 273.81 154.267C274.519 153.538 274.97 152.549 275.079 151.48C275.192 150.314 275.142 149.134 274.932 147.985C274.681 146.283 274.311 144.542 273.42 143.204C272.529 141.866 271.196 141.06 269.911 140.311C266.432 138.276 262.943 136.261 259.445 134.268C258.762 133.803 257.999 133.501 257.205 133.382C255.805 133.293 254.548 134.361 253.418 135.375C252.967 135.77 252.536 136.192 252.125 136.638C251.776 136.983 251.458 137.364 251.175 137.777C249.854 139.748 249.293 143.461 249.874 145.924C250.057 146.704 250.451 146.93 250.936 146.921C250.216 148.516 249.841 150.276 249.842 152.061C249.85 154.015 250.299 155.935 251.148 157.646C251.996 159.356 253.218 160.801 254.699 161.848C254.699 162.096 254.699 162.34 254.719 162.574C254.735 163.484 254.709 164.393 254.639 165.299C254.639 165.299 245.888 170.567 244.905 173.057C243.923 175.547 240.299 177.328 240.299 177.328C240.299 177.328 233.389 181.245 233.389 195.126L229.769 214.7L229.112 252.071C229.112 252.071 229.566 251.628 230.306 250.999C230.282 251.247 230.262 251.504 230.242 251.766C230.143 253.194 230.11 254.627 230.143 256.059L230.095 256.396ZM274.291 353.119C274.156 353.69 273.957 354.448 273.706 355.334C273.595 354.599 273.484 353.872 273.372 353.181C273.659 353.15 273.965 353.132 274.291 353.119Z" fill="url(#paint2_linear)"/>
<path d="M262.341 348.529C262.341 348.529 261.072 354.882 259.159 357.35C257.246 359.818 254.739 364.762 252.528 364.408C250.316 364.053 249.675 369.348 253.797 370.052C257.918 370.757 266.451 368.643 266.451 368.643C266.451 368.643 273.739 365.099 274.053 362.645C274.367 360.19 272.151 347.47 272.151 347.47L262.341 348.529Z" fill="#53526B"/>
<path opacity="0.05" d="M262.341 348.529C262.341 348.529 261.072 354.882 259.159 357.35C257.246 359.818 254.739 364.762 252.528 364.408C250.316 364.053 249.675 369.348 253.797 370.052C257.918 370.757 266.451 368.643 266.451 368.643C266.451 368.643 273.739 365.099 274.053 362.645C274.367 360.19 272.151 347.47 272.151 347.47L262.341 348.529Z" fill="black"/>
<path d="M274.065 351.351C274.065 351.351 272.796 357.704 270.882 360.172C268.969 362.64 266.451 367.585 264.243 367.23C262.035 366.876 261.391 372.17 265.512 372.875C269.633 373.579 278.186 371.461 278.186 371.461C278.186 371.461 285.474 367.917 285.788 365.462C286.102 363.008 283.886 350.288 283.886 350.288L274.065 351.351Z" fill="#53526B"/>
<path d="M245.23 254.672C245.23 254.672 247.765 285.017 249.666 288.194C251.568 291.37 253.783 305.132 253.783 305.132L257.901 333.359C257.901 333.359 259.492 349.592 260.435 351.355C261.377 353.119 273.137 352.361 273.137 352.361L265.825 258.903L245.23 254.672Z" fill="#5F5D7E"/>
<path opacity="0.05" d="M245.23 254.672C245.23 254.672 247.765 285.017 249.666 288.194C251.568 291.37 253.783 305.132 253.783 305.132L257.901 333.359C257.901 333.359 259.492 349.592 260.435 351.355C261.377 353.119 273.137 352.361 273.137 352.361L265.825 258.903L245.23 254.672Z" fill="black"/>
<path d="M240.163 240.198L240.991 243.126L245.466 258.948L245.553 259.249H245.577C246.178 259.4 258.86 262.647 261.597 263.644C261.745 263.695 261.889 263.756 262.03 263.826C263.299 264.53 264.883 289.935 264.883 289.935C264.883 289.935 265.833 313.931 266.474 315.694C267.114 317.457 269.656 353.797 271.228 352.742C272.799 351.688 284.216 352.742 284.216 352.742C285.485 351.329 284.216 332.278 284.216 332.278L281.964 297.352C281.964 297.352 283.233 277.946 281.964 274.415C280.695 270.884 280.695 247.247 280.695 247.247L254.763 242.732L252.256 242.289L240.163 240.198Z" fill="#5F5D7E"/>
<path opacity="0.02" d="M240.991 243.131L245.467 258.952L245.574 259.262C246.175 259.413 258.857 262.66 261.593 263.657H261.868L254.783 242.736L254.58 242.134L252.277 242.298L240.991 243.131Z" fill="black"/>
<path opacity="0.1" d="M270.58 169.632C270.58 169.632 258.857 183.748 251.569 172.1L244.599 177.395L245.868 185.511L241.747 246.905C241.747 246.905 252.52 246.551 260.122 249.373C262.239 250.21 264.527 250.355 266.716 249.792C268.905 249.23 270.904 247.982 272.478 246.197L271.224 192.215L274.077 175.631L270.58 169.632Z" fill="black"/>
<path d="M270.58 168.573C270.58 168.573 258.857 182.689 251.569 171.041L244.599 176.336L245.868 184.452L241.747 245.846C241.747 245.846 252.52 245.492 260.122 248.314C262.239 249.151 264.527 249.296 266.716 248.733C268.905 248.171 270.904 246.923 272.478 245.138L271.224 191.156L274.077 174.572L270.58 168.573Z" fill="#53526B"/>
<path d="M247.176 231.434V233.658H246.54V232.178H244.213V233.658H243.572V231.438L247.176 231.434Z" fill="#E82127"/>
<path d="M246.607 230.716H244.149C243.988 230.673 243.84 230.582 243.722 230.452C243.605 230.323 243.521 230.16 243.48 229.981H247.272C247.231 230.159 247.147 230.322 247.029 230.452C246.911 230.581 246.764 230.673 246.603 230.716" fill="#E82127"/>
<path d="M268.838 230.007C268.796 230.184 268.712 230.345 268.595 230.474C268.478 230.602 268.333 230.694 268.173 230.738H267.139L267.087 230.76V233.667H266.451V230.76L266.391 230.738H265.357C265.198 230.692 265.053 230.601 264.936 230.472C264.82 230.344 264.735 230.184 264.692 230.007H268.838Z" fill="#E82127"/>
<path d="M246.182 241.615C246.182 241.615 246.182 250.791 244.28 254.672C242.379 258.553 231.292 256.444 231.292 256.444L233.508 243.388L246.182 241.615Z" fill="#D6DBE6"/>
<path d="M232.497 262.793C234.168 264.566 241.094 261.021 240.617 258.912C240.283 257.419 239.113 252.076 238.449 249.045L237.987 246.914C237.987 246.914 233.93 245.501 232.497 246.914C231.976 247.428 231.61 249.453 231.439 251.899C231.145 256.148 231.443 261.668 232.497 262.793Z" fill="#FDC2CC"/>
<path d="M247.753 174.922L258.84 184.448C258.84 184.448 275.313 183.389 271.196 174.568C269.403 170.688 268.321 166.45 268.013 162.1C267.879 160.495 267.879 158.88 268.013 157.275C268.013 157.275 252.805 141.769 254.707 159.393C254.856 160.746 254.944 162.107 254.969 163.469C255.196 176.699 247.753 174.922 247.753 174.922Z" fill="#FDC2CC"/>
<path opacity="0.1" d="M254.739 159.398C254.889 160.751 254.976 162.111 255.001 163.474C256.708 164.733 258.711 165.402 260.758 165.397C263.594 165.397 265.682 162.322 267.568 160.279C267.357 157.351 268.041 157.28 268.041 157.28C268.041 157.28 252.837 141.755 254.739 159.398Z" fill="black"/>
<path d="M260.757 164.692C266.531 164.692 271.211 159.479 271.211 153.049C271.211 146.618 266.531 141.405 260.757 141.405C254.983 141.405 250.303 146.618 250.303 153.049C250.303 159.479 254.983 164.692 260.757 164.692Z" fill="#FDC2CC"/>
<path opacity="0.1" d="M268.201 164.161C268.201 164.161 269.943 164.338 273.428 169.628C276.913 174.918 284.515 175.627 284.515 175.627C284.515 175.627 287.367 174.213 290.534 190.092C293.7 205.972 294.651 216.556 293.068 218.319C291.485 220.083 285.148 222.56 281.965 222.56C281.965 222.56 281.014 244.788 282.598 248.669C284.181 252.55 282.279 255.022 282.279 255.022L268.356 253.963C268.356 253.963 263.602 247.26 262.652 235.616C261.701 223.973 258.534 190.801 260.118 186.92C261.701 183.039 268.67 173.159 268.356 172.1C268.042 171.041 268.201 164.161 268.201 164.161Z" fill="black"/>
<path d="M268.236 164.054C268.236 164.054 270.579 163.983 274.064 169.278C277.549 174.572 285.147 175.277 285.147 175.277C285.147 175.277 287.999 173.863 291.166 189.742C294.332 205.622 295.283 216.206 293.7 217.969C292.116 219.733 285.779 222.205 282.613 222.205C282.613 222.205 281.662 244.433 283.245 248.314C284.829 252.195 282.927 254.668 282.927 254.668L269.004 253.609C269.004 253.609 264.25 246.905 263.299 235.262C262.349 223.618 259.174 190.451 260.758 186.588C262.341 182.725 269.31 172.827 268.996 171.768C268.682 170.709 268.236 164.054 268.236 164.054Z" fill="#D6DBE6"/>
<path opacity="0.1" d="M231.442 251.894C232.958 250.605 235.818 248.598 238.452 249.041L237.99 246.91C237.99 246.91 233.933 245.496 232.501 246.91C231.971 247.424 231.609 249.444 231.442 251.894Z" fill="black"/>
<path opacity="0.1" d="M254.914 166.278C254.914 166.278 246.835 172.1 245.884 174.572C244.933 177.045 241.449 178.808 241.449 178.808C241.449 178.808 234.797 182.689 234.797 196.45L231.312 215.856L247.153 240.556C247.153 240.556 249.055 215.856 250.005 209.857C250.956 203.858 252.221 192.578 252.221 192.578C252.221 192.578 256.975 185.875 256.338 184.111C255.702 182.348 254.914 166.278 254.914 166.278Z" fill="black"/>
<path d="M254.914 166.172C254.914 166.172 246.489 171.396 245.542 173.863C244.595 176.331 241.107 178.099 241.107 178.099C241.107 178.099 234.455 181.98 234.455 195.741L230.97 215.147L230.338 252.195C230.338 252.195 236.042 246.196 240.16 249.019C244.277 251.841 246.811 239.843 246.811 239.843C246.811 239.843 248.713 215.143 249.663 209.144C250.614 203.145 251.879 191.865 251.879 191.865C251.879 191.865 256.633 185.161 255.996 183.398C255.36 181.635 254.914 166.172 254.914 166.172Z" fill="#D6DBE6"/>
<path opacity="0.1" d="M251.579 138.884C252.116 138.124 252.736 137.442 253.425 136.855C254.515 135.845 255.721 134.79 257.073 134.879C257.838 134.992 258.573 135.285 259.229 135.739C262.597 137.715 265.956 139.711 269.306 141.729C270.543 142.473 271.82 143.262 272.683 144.6C273.546 145.938 273.896 147.657 274.139 149.34C274.342 150.481 274.39 151.649 274.282 152.805C274.184 153.939 273.689 154.984 272.906 155.716C272.003 156.447 270.766 156.451 270.01 157.408C269.572 157.962 269.381 158.737 269.071 159.411C268.761 160.084 268.224 160.74 267.611 160.62C266.998 160.501 266.628 159.779 266.541 159.048C266.502 158.307 266.541 157.563 266.656 156.832C266.776 155.503 266.624 154.094 265.932 153.106C265.455 152.433 264.771 152.025 264.309 151.334C263.203 149.668 263.709 146.903 262.495 145.34C262.143 144.931 261.7 144.633 261.21 144.478C260.721 144.322 260.204 144.314 259.711 144.453C258.728 144.684 257.829 145.277 256.926 145.783C255.706 146.468 254.428 147.017 253.111 147.422C252.005 147.759 250.724 148.565 250.346 146.926C249.769 144.52 250.307 140.838 251.579 138.884Z" fill="black"/>
<path d="M251.899 138.534C252.435 137.774 253.055 137.093 253.744 136.505C254.834 135.495 256.04 134.44 257.392 134.529C258.157 134.642 258.892 134.935 259.548 135.389C262.914 137.365 265.71 135.495 269.625 141.379C270.46 142.637 272.139 142.912 273.002 144.25C273.865 145.588 274.215 147.307 274.458 148.99C274.661 150.131 274.71 151.299 274.601 152.455C274.503 153.589 274.008 154.634 273.225 155.366C272.322 156.097 271.085 156.101 270.329 157.058C269.891 157.612 269.7 158.388 269.39 159.061C269.08 159.734 268.543 160.39 267.93 160.271C267.318 160.151 266.948 159.429 266.86 158.698C266.821 157.957 266.86 157.213 266.975 156.482C267.095 155.153 266.944 153.744 266.251 152.756C265.774 152.083 265.09 151.675 264.628 150.984C263.522 149.318 264.028 146.554 262.814 144.99C262.462 144.581 262.019 144.283 261.53 144.128C261.04 143.972 260.523 143.964 260.03 144.103C259.047 144.334 258.148 144.928 257.245 145.433C256.025 146.118 254.747 146.667 253.43 147.072C252.324 147.409 251.043 148.215 250.665 146.576C250.085 144.17 250.626 140.484 251.899 138.534Z" fill="#865A61"/>
<path opacity="0.1" d="M280.452 192.388C280.452 192.388 284.677 204.386 281.507 209.326L274.537 207.553C274.537 207.553 280.874 209.671 279.923 205.436C278.973 201.2 280.452 192.388 280.452 192.388Z" fill="black"/>
<path opacity="0.1" d="M282.76 222.032C282.76 222.032 273.571 222.737 271.037 220.619C274.374 223.456 278.315 225.28 282.474 225.913L282.76 222.032Z" fill="black"/>
<path opacity="0.1" d="M243.175 199.437C243.175 199.437 238.422 215.67 238.74 218.138C239.058 220.606 239.691 247.778 239.691 247.778L240.641 247.424L240.323 217.783L243.175 199.437Z" fill="black"/>
<path d="M283.877 219.277L175.276 121.805C174.644 121.101 173.894 120.543 173.068 120.163C172.242 119.783 171.357 119.588 170.463 119.589H165.848C175.07 106.428 179.437 89.8445 178.059 73.2207C176.681 56.597 169.661 41.1846 158.432 30.1262C147.202 19.0677 132.609 13.1961 117.626 13.7083C102.644 14.2206 88.401 21.0783 77.8018 32.8831C67.2026 44.6879 61.0453 60.5508 60.5854 77.2374C60.1254 93.924 65.3974 110.178 75.3265 122.684C85.2555 135.191 99.0938 143.009 114.02 144.544C128.946 146.079 143.835 141.215 155.653 130.945V136.08C155.651 137.075 155.826 138.061 156.168 138.981C156.509 139.901 157.01 140.737 157.642 141.441L266.243 238.913C266.871 239.619 267.619 240.179 268.443 240.561C269.268 240.944 270.151 241.141 271.044 241.141C271.937 241.141 272.821 240.944 273.645 240.561C274.469 240.179 275.217 239.619 275.846 238.913L283.85 230.007C285.127 228.586 285.847 226.659 285.852 224.648C285.857 222.637 285.147 220.706 283.877 219.277ZM119.397 119.589C112.226 119.589 105.216 117.221 99.254 112.784C93.2917 108.347 88.6447 102.041 85.9006 94.662C83.1565 87.2836 82.4385 79.1645 83.8374 71.3316C85.2363 63.4986 88.6894 56.3036 93.7599 50.6563C98.8304 45.0091 105.291 41.1633 112.324 39.6052C119.357 38.0471 126.646 38.8468 133.271 41.9031C139.896 44.9593 145.559 50.1349 149.543 56.7754C153.526 63.4158 155.653 71.2229 155.653 79.2093C155.656 84.5136 154.721 89.7668 152.901 94.6682C151.08 99.5697 148.41 104.023 145.042 107.774C141.675 111.526 137.677 114.501 133.276 116.529C128.876 118.558 124.159 119.601 119.397 119.598V119.589Z" fill="url(#paint3_linear)"/>
<path d="M284.673 218.39L176.072 120.918C175.44 120.215 174.69 119.657 173.864 119.277C173.038 118.897 172.153 118.702 171.259 118.703H166.644C175.866 105.542 180.233 88.9584 178.855 72.3346C177.476 55.7108 170.457 40.2984 159.228 29.24C147.998 18.1816 133.405 12.3099 118.422 12.8222C103.44 13.3344 89.1969 20.1921 78.5977 31.9969C67.9985 43.8017 61.8412 59.6646 61.3813 76.3512C60.9213 93.0379 66.1933 109.292 76.1223 121.798C86.0514 134.305 99.8897 142.123 114.816 143.658C129.742 145.193 144.631 140.329 156.449 130.059V135.194C156.447 136.189 156.622 137.175 156.964 138.095C157.305 139.015 157.806 139.851 158.438 140.555L267.038 238.027C267.667 238.733 268.415 239.293 269.239 239.675C270.063 240.058 270.947 240.255 271.84 240.255C272.733 240.255 273.617 240.058 274.441 239.675C275.265 239.293 276.013 238.733 276.642 238.027L284.645 229.121C285.922 227.7 286.642 225.773 286.648 223.762C286.653 221.751 285.943 219.82 284.673 218.39ZM120.193 118.703C113.022 118.703 106.012 116.335 100.05 111.898C94.0876 107.461 89.4406 101.154 86.6965 93.7759C83.9523 86.3974 83.2344 78.2784 84.6333 70.4454C86.0322 62.6124 89.4853 55.4174 94.5558 49.7702C99.6263 44.1229 106.086 40.2771 113.119 38.719C120.152 37.161 127.442 37.9606 134.067 41.0169C140.692 44.0732 146.355 49.2488 150.338 55.8892C154.322 62.5297 156.449 70.3367 156.449 78.3231C156.452 83.6275 155.517 88.8806 153.696 93.7821C151.876 98.6835 149.205 103.137 145.838 106.888C142.471 110.639 138.473 113.615 134.072 115.643C129.672 117.672 124.955 118.715 120.193 118.712V118.703Z" fill="#6C63FF"/>
<path d="M276.598 209.503C276.598 209.503 260.746 189.255 262.973 203.149C264.565 213.029 270.575 218.324 273.428 219.383C276.28 220.442 276.598 209.503 276.598 209.503Z" fill="#FDC2CC"/>
<path d="M280.402 190.801C280.402 190.801 280.72 203.858 282.303 205.622C283.886 207.385 281.352 209.503 281.352 209.503L275.015 207.731C275.015 207.731 276.607 219.374 269.947 217.965C269.947 217.965 274.383 222.551 278.818 223.26C283.254 223.968 282.936 222.201 282.936 222.201L289.587 213.379L280.402 190.801Z" fill="#D6DBE6"/>
<path d="M282.154 222.391L288.583 220.818L287.724 217.518L283.746 215.745L278.574 218.404L282.154 222.391Z" fill="#D6DBE6"/>
<path d="M124.158 95.0573L132.715 87.7071C132.715 87.7071 126.983 89.0761 127.146 78.8725C127.144 78.8386 127.144 78.8046 127.146 78.7706C127.146 77.8491 127.225 76.8389 127.345 75.7269C128.813 62.1118 117.077 74.092 117.077 74.092C117.178 75.2974 117.178 76.5107 117.077 77.7162C117.077 77.7472 117.077 77.7826 117.077 77.8136C116.845 81.1688 116.015 84.4388 114.635 87.4324C111.448 94.2377 124.158 95.0573 124.158 95.0573Z" fill="#FDC2CC"/>
<path opacity="0.1" d="M118.172 75.8243C119.624 77.3972 120.511 80.2549 122.695 80.2549C124.275 80.2587 125.821 79.7424 127.139 78.7706C127.139 77.8491 127.218 76.8389 127.338 75.7269C128.806 62.1118 117.07 74.092 117.07 74.092C117.07 74.092 118.327 73.6091 118.172 75.8243Z" fill="black"/>
<path d="M122.695 79.8118C127.151 79.8118 130.763 75.7891 130.763 70.8267C130.763 65.8643 127.151 61.8416 122.695 61.8416C118.24 61.8416 114.628 65.8643 114.628 70.8267C114.628 75.7891 118.24 79.8118 122.695 79.8118Z" fill="#FDC2CC"/>
<path opacity="0.1" d="M130.432 59.3205C129.97 58.6692 129.435 58.0857 128.841 57.5837C127.91 56.7198 126.876 55.8115 125.718 55.8913C125.063 55.9883 124.434 56.239 123.872 56.6267C120.988 58.3192 118.598 56.7198 115.244 61.7529C114.528 62.8295 113.092 63.082 112.352 64.2118C111.612 65.3416 111.314 66.8258 111.103 68.2702C110.929 69.2472 110.887 70.2479 110.98 71.2387C111.068 72.2111 111.497 73.1057 112.173 73.7286C112.945 74.3533 114.007 74.3578 114.655 75.1774C114.981 75.7113 115.248 76.287 115.451 76.892C115.713 77.468 116.175 78.013 116.7 77.9288C117.225 77.8446 117.539 77.211 117.615 76.5996C117.648 75.9669 117.614 75.332 117.516 74.7078C117.416 73.5869 117.543 72.364 118.136 71.5178C118.534 70.9374 119.131 70.5918 119.524 70.0025C120.471 68.5803 120.042 66.1923 121.08 64.872C121.384 64.5247 121.764 64.2733 122.184 64.1433C122.603 64.0134 123.046 64.0095 123.467 64.1321C124.303 64.3979 125.105 64.7821 125.854 65.2752C126.898 65.8623 127.992 66.3328 129.119 66.6796C130.066 66.9676 131.164 67.6588 131.486 66.2366C131.992 64.1454 131.518 60.9908 130.432 59.3205Z" fill="black"/>
<path d="M130.432 58.8774C129.97 58.2262 129.435 57.6426 128.841 57.1407C127.91 56.2767 126.876 55.3684 125.718 55.4482C125.063 55.5453 124.434 55.796 123.872 56.1837C120.988 57.8761 118.598 56.2767 115.244 61.3098C114.528 62.3864 113.092 62.639 112.352 63.7688C111.612 64.8985 111.314 66.3828 111.103 67.8271C110.929 68.8042 110.887 69.8048 110.98 70.7956C111.068 71.7681 111.497 72.6626 112.173 73.2856C112.945 73.9103 114.007 73.9147 114.655 74.7344C114.981 75.2683 115.248 75.8439 115.451 76.449C115.713 77.025 116.175 77.5699 116.7 77.4857C117.225 77.4015 117.539 76.768 117.615 76.1566C117.648 75.5238 117.614 74.8889 117.516 74.2647C117.416 73.1438 117.543 71.921 118.136 71.0747C118.534 70.4943 119.131 70.1487 119.524 69.5595C120.471 68.1373 120.042 65.7492 121.08 64.4289C121.384 64.0817 121.764 63.8303 122.184 63.7003C122.603 63.5703 123.046 63.5664 123.467 63.689C124.303 63.9548 125.105 64.339 125.854 64.8321C126.898 65.4192 127.992 65.8897 129.119 66.2366C130.066 66.5246 131.164 67.2157 131.486 65.7935C131.992 63.7023 131.518 60.5478 130.432 58.8774Z" fill="#865A61"/>
<path opacity="0.1" d="M114.627 99.7847L114.468 106.586C116.78 107.285 119.165 107.639 121.561 107.636C121.959 107.636 122.377 107.636 122.782 107.605C124.907 107.503 127.013 107.119 129.056 106.462H129.096C129.473 106.338 129.847 106.209 130.217 106.067H130.257L130.595 105.934C131.883 105.429 133.133 104.813 134.335 104.091L134.41 104.047C134.541 103.967 134.673 103.887 134.808 103.803L134.191 94.6364L135.174 88.3495L129.796 84.269C129.494 84.7545 129.156 85.211 128.785 85.6336C128.254 86.2512 127.633 86.7636 126.947 87.1488C123.089 89.2666 118.697 85.8994 116.513 83.817L116.016 83.3253C115.451 82.7537 115.129 82.3638 115.129 82.3638L112.439 86.9893L114.627 99.7847Z" fill="black"/>
<path d="M114.627 100.228L114.468 107.029C116.78 107.728 119.165 108.082 121.561 108.079C121.959 108.079 122.377 108.079 122.782 108.048C124.907 107.946 127.013 107.562 129.056 106.905H129.096C129.473 106.781 129.847 106.652 130.217 106.51H130.257L130.595 106.377C131.883 105.872 133.133 105.256 134.335 104.534L134.41 104.49C134.541 104.41 134.673 104.33 134.808 104.246L134.191 95.0795L135.174 88.7926L129.796 84.712C129.494 85.1976 129.156 85.6541 128.785 86.0766C128.254 86.6942 127.633 87.2066 126.947 87.5919C123.089 89.7097 118.697 86.3425 116.513 84.2601L116.016 83.7683C115.451 83.1968 115.129 82.8069 115.129 82.8069L112.439 87.4324L114.627 100.228Z" fill="#53526B"/>
<path d="M129.537 100.773C129.537 100.773 129.832 103.382 130.218 106.501H130.257L130.596 106.369C131.883 105.863 133.133 105.247 134.335 104.525L134.411 104.481C134.542 104.401 134.673 104.322 134.808 104.237C136.572 103.135 138.219 101.815 139.717 100.303L139.849 100.166C140.67 99.3371 141.443 98.449 142.16 97.5074L142.243 97.3967C140.823 91.9072 137.867 90.1793 137.867 90.1793C137.867 90.1793 135.178 88.8147 134.442 86.9096C133.706 85.0044 127.21 80.9771 127.21 80.9771V81.0081C127.21 81.3492 127.107 84.4728 126.952 87.614C126.852 89.6565 126.729 91.7078 126.586 93.0104C126.555 93.4336 126.485 93.8522 126.379 94.2598C125.874 95.6023 129.537 100.773 129.537 100.773Z" fill="#555388"/>
</g>
<defs>
<linearGradient id="paint0_linear" x1="204.583" y1="352.051" x2="204.583" y2="17.4076" gradientUnits="userSpaceOnUse">
<stop stop-color="#808080" stop-opacity="0.25"/>
<stop offset="0.54" stop-color="#808080" stop-opacity="0.12"/>
<stop offset="1" stop-color="#808080" stop-opacity="0.1"/>
</linearGradient>
<linearGradient id="paint1_linear" x1="14879.2" y1="27447.3" x2="14879.2" y2="20958.2" gradientUnits="userSpaceOnUse">
<stop stop-color="#808080" stop-opacity="0.25"/>
<stop offset="0.54" stop-color="#808080" stop-opacity="0.12"/>
<stop offset="1" stop-color="#808080" stop-opacity="0.1"/>
</linearGradient>
<linearGradient id="paint2_linear" x1="-69559.9" y1="208971" x2="-69559.9" y2="78327.3" gradientUnits="userSpaceOnUse">
<stop stop-color="#808080" stop-opacity="0.25"/>
<stop offset="0.54" stop-color="#808080" stop-opacity="0.12"/>
<stop offset="1" stop-color="#808080" stop-opacity="0.1"/>
</linearGradient>
<linearGradient id="paint3_linear" x1="107866" y1="129247" x2="107866" y2="12426.3" gradientUnits="userSpaceOnUse">
<stop stop-color="#808080" stop-opacity="0.25"/>
<stop offset="0.54" stop-color="#808080" stop-opacity="0.12"/>
<stop offset="1" stop-color="#808080" stop-opacity="0.1"/>
</linearGradient>
<clipPath id="clip0">
<rect width="443" height="374" fill="white"/>
</clipPath>
</defs>
</svg>
